<?xml version="1.0" encoding="UTF-8"?>
<svg id="Capa_2" data-name="Capa 2" xmlns="http://www.w3.org/2000/svg" viewBox="0 0 17 22">
  <defs>
    <style>
      .cls-1 {
        fill: #fff;
      }
    </style>
  </defs>
  <g id="Capa_1-2" data-name="Capa 1">
    <g>
      <rect x="1" y="12" width="1" height="1"/>
      <polygon points="3 9 3 10 1 10 1 12 0 12 0 9 3 9"/>
      <rect x="2" y="13" width="1" height="2"/>
      <rect x="3" y="15" width="1" height="2"/>
      <polygon points="5 1 5 12 4 12 4 11 3 11 3 10 4 10 4 1 5 1"/>
      <rect x="4" y="17" width="1" height="2"/>
      <rect x="5" width="2" height="1"/>
      <polygon points="10 5 10 6 8 6 8 10 7 10 7 1 8 1 8 5 10 5"/>
      <polygon points="13 6 13 7 11 7 11 10 10 10 10 6 13 6"/>
      <polygon points="15 7 15 8 14 8 14 11 13 11 13 7 15 7"/>
      <polygon points="15 19 15 22 5 22 5 19 6 19 6 21 14 21 14 19 15 19"/>
      <rect x="15" y="8" width="1" height="1"/>
      <rect x="15" y="16" width="1" height="3"/>
      <polygon class="cls-1" points="16 9 16 16 15 16 15 19 14 19 14 21 6 21 6 19 5 19 5 17 4 17 4 15 3 15 3 13 2 13 2 12 1 12 1 10 3 10 3 11 4 11 4 12 5 12 5 1 7 1 7 10 8 10 8 6 10 6 10 10 11 10 11 7 13 7 13 11 14 11 14 8 15 8 15 9 16 9"/>
      <rect x="16" y="9" width="1" height="7"/>
    </g>
  </g>
</svg>