<?xml version="1.0" encoding="UTF-8"?>
<svg id="Capa_2" data-name="Capa 2" xmlns="http://www.w3.org/2000/svg" viewBox="0 0 12 19">
  <defs>
    <style>
      .cls-1 {
        fill: #fff;
      }
    </style>
  </defs>
  <g id="Capa_1-2" data-name="Capa 1">
    <g>
      <polygon points="1 2 1 16 2 16 2 17 0 17 0 0 1 0 1 1 2 1 2 2 1 2"/>
      <rect x="2" y="2" width="1" height="1"/>
      <rect x="2" y="15" width="1" height="1"/>
      <rect x="3" y="3" width="1" height="1"/>
      <rect x="3" y="14" width="1" height="1"/>
      <rect x="4" y="4" width="1" height="1"/>
      <rect x="4" y="13" width="1" height="1"/>
      <rect x="5" y="5" width="1" height="1"/>
      <rect x="5" y="14" width="1" height="2"/>
      <rect x="6" y="6" width="1" height="1"/>
      <rect x="6" y="16" width="1" height="2"/>
      <rect x="7" y="7" width="1" height="1"/>
      <rect x="8" y="8" width="1" height="1"/>
      <rect x="8" y="14" width="1" height="2"/>
      <rect x="7" y="18" width="2" height="1"/>
      <rect x="9" y="9" width="1" height="1"/>
      <rect x="9" y="16" width="1" height="2"/>
      <rect x="10" y="10" width="1" height="1"/>
      <polygon class="cls-1" points="7 12 7 14 8 14 8 16 9 16 9 18 7 18 7 16 6 16 6 14 5 14 5 13 4 13 4 14 3 14 3 15 2 15 2 16 1 16 1 2 2 2 2 3 3 3 3 4 4 4 4 5 5 5 5 6 6 6 6 7 7 7 7 8 8 8 8 9 9 9 9 10 10 10 10 11 11 11 11 12 7 12"/>
      <polygon points="12 11 12 13 8 13 8 14 7 14 7 12 11 12 11 11 12 11"/>
    </g>
  </g>
</svg>