<?xml version="1.0" encoding="UTF-8"?>
<svg id="Capa_2" data-name="Capa 2" xmlns="http://www.w3.org/2000/svg" viewBox="0 0 490.74 490.72">
  <defs>
    <style>
      .cls-1 {
        fill: #fff;
      }

      .cls-2 {
        fill: #666;
      }
    </style>
  </defs>
  <g id="Ilustración_de_conjunto_de_iconos" data-name="Ilustración de conjunto de iconos">
    <g>
      <path d="M474.38,179.93v-49.08h-16.36v-16.35h-16.36v-32.72h-16.36v-16.35h-16.35v-16.36h-32.72v-16.36h-16.36v-16.36h-49.07V0h-130.86v16.35h-49.07v16.36h-16.36v16.36h-32.72v16.36h-16.35v16.35h-16.36v32.72h-16.36v16.35h-16.36v49.08H0v130.86h16.36v49.08h16.36v16.35h16.36v32.72h16.36v16.35h16.35v16.36h32.72v16.36h16.36v16.36h49.07v16.35h130.86v-16.35h49.07v-16.36h16.36v-16.36h32.72v-16.36h16.35v-16.35h16.36v-32.72h16.36v-16.35h16.36v-49.08h16.36v-130.86h-16.36ZM474.38,294.44h-16.36v49.07h-16.36v16.36h-16.36v32.71h-16.35v16.36h-16.36v16.35h-32.72v16.36h-16.35v16.36h-49.08v16.36h-98.14v-16.36h-49.08v-16.36h-16.35v-16.36h-32.72v-16.35h-16.36v-16.36h-16.35v-32.71h-16.36v-16.36h-16.36v-49.07h-16.36v-98.16h16.36v-49.06h16.36v-16.37h16.36v-32.7h16.35v-16.37h16.36v-16.35h32.72v-16.36h16.35v-16.36h49.08v-16.36h98.14v16.36h49.08v16.36h16.35v16.36h32.72v16.35h16.36v16.37h16.35v32.7h16.36v16.37h16.36v49.06h16.36v98.16Z"/>
      <path class="cls-1" d="M458.02,196.28v-49.06h-16.36v-16.37h-16.36v-32.7h-16.35v-16.37h-16.36v-16.35h-32.72v-16.36h-16.35v-16.36h-49.08v-16.36h-98.14v16.36h-49.08v16.36h-16.35v16.36h-32.72v16.35h-16.36v16.37h-16.35v32.7h-16.36v16.37h-16.36v49.06h-16.36v98.16h16.36v49.07h16.36v16.36h16.36v32.71h16.35v16.36h16.36v16.35h32.72v16.36h16.35v16.36h49.08v16.36h98.14v-16.36h49.08v-16.36h16.35v-16.36h32.72v-16.35h16.36v-16.36h16.35v-32.71h16.36v-16.36h16.36v-49.07h16.36v-98.16h-16.36ZM368.05,286.26h-16.36v32.7h-16.35v16.37h-16.36v16.36h-32.72v16.35h-81.79v-16.35h-32.71v-16.36h-16.36v-16.37h-16.36v-32.7h-16.35v-81.8h16.35v-32.7h16.36v-16.37h16.36v-16.36h32.71v-16.35h81.79v16.35h32.72v16.36h16.36v16.37h16.35v32.7h16.36v81.8Z"/>
      <path d="M351.69,204.46v-32.7h-16.35v-16.37h-16.36v-16.36h-32.72v-16.35h-81.79v16.35h-32.71v16.36h-16.36v16.37h-16.36v32.7h-16.35v81.8h16.35v32.7h16.36v16.37h16.36v16.36h32.71v16.35h81.79v-16.35h32.72v-16.36h16.36v-16.37h16.35v-32.7h16.36v-81.8h-16.36ZM351.69,269.89h-16.35v32.73h-16.36v16.34h-16.36v16.37h-32.71v16.36h-49.08v-16.36h-32.71v-16.37h-16.36v-16.34h-16.36v-32.73h-16.36v-49.06h16.36v-32.73h16.36v-16.34h16.36v-16.37h32.71v-16.36h49.08v16.36h32.71v16.37h16.36v16.34h16.36v32.73h16.35v49.06Z"/>
      <path class="cls-2" d="M335.34,220.83v-32.73h-16.36v-16.34h-16.36v-16.37h-32.71v-16.36h-49.08v16.36h-32.71v16.37h-16.36v16.34h-16.36v32.73h-16.36v49.06h16.36v32.73h16.36v16.34h16.36v16.37h32.71v16.36h49.08v-16.36h32.71v-16.37h16.36v-16.34h16.36v-32.73h16.35v-49.06h-16.35ZM302.62,269.9h-16.36v16.36h-16.35v16.36h-49.08v-16.36h-16.36v-16.36h-16.35v-49.07h16.35v-16.36h16.36v-16.37h49.08v16.37h16.35v16.36h16.36v49.07Z"/>
      <path d="M286.26,220.83v-16.36h-16.35v-16.37h-49.08v16.37h-16.36v16.36h-16.35v49.07h16.35v16.36h16.36v16.36h49.08v-16.36h16.35v-16.36h16.36v-49.07h-16.36ZM286.26,253.54h-16.35v16.36h-16.36v16.36h-16.36v-16.36h-16.36v-16.36h-16.36v-16.36h16.36v-16.35h16.36v-16.36h16.36v16.36h16.36v16.35h16.35v16.36Z"/>
      <polygon points="286.26 237.18 286.26 253.54 269.91 253.54 269.91 269.9 253.55 269.9 253.55 286.26 237.19 286.26 237.19 269.9 220.83 269.9 220.83 253.54 204.47 253.54 204.47 237.18 220.83 237.18 220.83 220.83 237.19 220.83 237.19 204.47 253.55 204.47 253.55 220.83 269.91 220.83 269.91 237.18 286.26 237.18"/>
    </g>
  </g>
</svg>