<?xml version="1.0" encoding="UTF-8"?>
<svg id="Capa_2" data-name="Capa 2" xmlns="http://www.w3.org/2000/svg" viewBox="0 0 523.92 437.4">
  <defs>
    <style>
      .cls-1 {
        fill: #f4c5a2;
      }

      .cls-2 {
        fill: #c96;
      }

      .cls-3 {
        fill: none;
        stroke: #542a0b;
        stroke-linecap: round;
        stroke-linejoin: round;
        stroke-width: .5px;
      }

      .cls-4 {
        fill: #aa672b;
      }
    </style>
  </defs>
  <g id="Ilustración_de_conjunto_de_iconos" data-name="Ilustración de conjunto de iconos">
    <g id="SPLINE">
      <g>
        <g>
          <path class="cls-2" d="M523.67,128.69v6.1c-1.77,1.02-3.53,2.04-5.29,3.06v-6.11c1.76-1.02,3.52-2.04,5.29-3.05Z"/>
          <path class="cls-2" d="M523.67,67.44v6.11c-1.77,1.02-3.53,2.04-5.29,3.06v-6.11c1.76-1.02,3.52-2.04,5.29-3.06Z"/>
          <path class="cls-2" d="M470.64,98.06c-1.77,1.02-3.53,2.04-5.3,3.06-1.76,1.01-3.52,2.03-5.28,3.05h-.01c-10.34,5.97-20.67,11.94-31.01,17.91h-.01c-1.84,1.07-3.69,2.13-5.53,3.2-1.85,1.06-3.71,2.13-5.56,3.21-1.76,1.01-3.53,2.03-5.29,3.05-1.76,1.01-3.52,2.03-5.28,3.05h-.01c-3.61,2.09-7.22,4.17-10.83,6.26-5.38,3.1-10.75,6.2-16.13,9.31-19.2,11.09-38.41,22.17-57.61,33.26-1.76,1.02-3.53,2.04-5.29,3.05h0c-1.76,1.02-3.53,2.04-5.29,3.06-1.76,1.01-3.52,2.03-5.29,3.05-1.76,1.02-3.53,2.04-5.29,3.05-.01.01-.02.02-.03.02-12.38,7.15-24.75,14.29-37.13,21.44-1.76,1.02-3.53,2.04-5.29,3.06-1.76,1.01-3.53,2.03-5.29,3.05-8.58,4.95-17.16,9.91-25.74,14.86-1.85,1.07-3.69,2.14-5.54,3.2-1.85,1.07-3.69,2.13-5.54,3.2-.03.01-.05.03-.07.04-1.74,1-3.48,2.01-5.22,3.01-1.76,1.02-3.53,2.04-5.29,3.06-3.62,2.08-7.23,4.17-10.84,6.25h-.01c-5.37,3.11-10.74,6.21-16.11,9.31-20.97,12.1-41.94,24.21-62.9,36.32-1.76,1.01-3.53,2.03-5.29,3.05-1.76,1.01-3.53,2.03-5.29,3.05v-6.1c139.21-80.37,278.41-160.74,417.62-241.12v6.11c-1.77,1.02-3.53,2.04-5.29,3.06s-3.53,2.04-5.29,3.05c-1.76,1.02-3.53,2.04-5.29,3.06s-3.53,2.03-5.29,3.05-3.53,2.04-5.29,3.05h0c-2.82,1.63-5.65,3.26-8.47,4.89-1.76,1.02-3.53,2.04-5.29,3.06-1.31.76-2.63,1.51-3.94,2.27l-8.88,5.13Z"/>
          <path class="cls-1" d="M523.67,61.33c-139.21,80.38-278.41,160.75-417.62,241.12-1.76-1.02-3.53-2.04-5.29-3.06,137.93-79.63,275.84-159.26,413.77-238.89,1.28-.74,2.57-1.48,3.85-2.22,1.76,1.02,3.52,2.04,5.29,3.05Z"/>
          <path class="cls-1" d="M523.67,128.69c-1.77,1.01-3.53,2.03-5.29,3.05v-6.11c1.76,1.02,3.52,2.04,5.29,3.06Z"/>
          <path class="cls-2" d="M518.38,137.85v55.13c-1.77,1.02-3.53,2.04-5.29,3.06v-122.49c1.76-1.01,3.53-2.03,5.29-3.05v67.35Z"/>
          <path class="cls-2" d="M514.53,56.06v4.44c-137.93,79.63-275.84,159.26-413.77,238.89v1.67c-1.28.74-2.56,1.48-3.85,2.22v-6.11c139.21-80.37,278.41-160.74,417.62-241.11Z"/>
          <path class="cls-1" d="M514.53,56.06c-139.21,80.37-278.41,160.74-417.62,241.11-1.76-1.02-3.52-2.04-5.29-3.05C229.55,214.49,367.46,134.86,505.39,55.23c1.28-.74,2.57-1.48,3.85-2.22,1.76,1.01,3.53,2.03,5.29,3.05Z"/>
          <path class="cls-2" d="M513.09,196.04v6.1c-1.77,1.02-3.53,2.04-5.29,3.06v-12.22c1.76,1.02,3.52,2.04,5.29,3.06Z"/>
          <path class="cls-4" d="M513.09,73.55v122.49c-1.77-1.02-3.53-2.04-5.29-3.06v-116.37c1.76-1.02,3.53-2.04,5.29-3.06Z"/>
          <path class="cls-4" d="M507.8,192.98v12.22c-1.77-1.02-3.53-2.04-5.29-3.06v-24.43c1.76,1.02,3.52,2.04,5.29,3.06v12.21Z"/>
          <path class="cls-1" d="M507.8,174.66v6.11c-1.77-1.02-3.53-2.04-5.29-3.06,1.76-1.02,3.52-2.03,5.29-3.05Z"/>
          <path class="cls-2" d="M507.8,131.74v42.92c-1.77,1.02-3.53,2.03-5.29,3.05v-42.92c1.76-1.01,3.53-2.03,5.29-3.05Z"/>
          <path class="cls-2" d="M507.8,125.63v6.11c-1.76,1.02-3.53,2.04-5.29,3.05-1.76,1.02-3.53,2.04-5.29,3.06-58.14,33.56-116.29,67.14-174.43,100.7v-6.11c28.19-16.27,56.38-32.55,84.57-48.82,1.76-1.02,3.53-2.04,5.29-3.06l85.74-49.5c3.13-1.81,6.27-3.62,9.41-5.43Z"/>
          <path class="cls-2" d="M428.45,132.02c-1.76.02-3.53.04-5.29.07-1.74.02-3.48.05-5.22.07v-3.67c1.85-1.08,3.71-2.15,5.56-3.21,28.1-.38,56.2-.76,84.3-1.14v1.49c-3.14,1.81-6.28,3.62-9.41,5.43-3.61.05-7.23.1-10.84.15-19.7.27-39.4.54-59.1.81Z"/>
          <path class="cls-1" d="M507.8,122.58v1.56c-28.1.38-56.2.76-84.3,1.14,1.84-1.07,3.69-2.13,5.53-3.2h.01c20.2-.27,40.41-.55,60.61-.82,2.52-.04,5.05-.07,7.57-.1,1.76-.03,3.53-.05,5.29-.07.88-.02,1.76-.03,2.64-.04.88.51,1.77,1.02,2.65,1.53Z"/>
          <path class="cls-1" d="M507.8,119.52v3.06c-.88-.51-1.77-1.02-2.65-1.53.88-.51,1.77-1.02,2.65-1.53Z"/>
          <path class="cls-2" d="M507.8,76.61v42.91c-.88.51-1.77,1.02-2.65,1.53-.88.01-1.76.02-2.64.04v-41.43c1.76-1.02,3.53-2.03,5.29-3.05Z"/>
          <path class="cls-2" d="M505.39,50.78v4.45c-137.93,79.63-275.84,159.26-413.77,238.89v1.66l-3.84,2.22v-6.1C226.98,211.53,366.19,131.15,505.39,50.78Z"/>
          <path class="cls-1" d="M505.39,50.78c-139.2,80.37-278.41,160.75-417.61,241.12-1.77-1.02-3.53-2.04-5.29-3.06C220.41,209.21,358.34,129.58,496.26,49.95l3.84-2.22c1.77,1.02,3.53,2.04,5.29,3.05Z"/>
          <path class="cls-4" d="M502.51,177.71v12.22c-1.77-1.02-3.53-2.04-5.29-3.06v-49.02c1.76-1.02,3.53-2.04,5.29-3.06v42.92Z"/>
          <path class="cls-4" d="M502.51,79.66v41.43c-1.76.02-3.53.04-5.29.07v-7.75h0v-30.69h0c1.76-1.02,3.53-2.04,5.29-3.06Z"/>
          <path class="cls-1" d="M498.39,131.06l-85.74,49.5v-6.1c24.97-14.42,49.93-28.83,74.9-43.25,3.61-.05,7.23-.1,10.84-.15Z"/>
          <path class="cls-4" d="M497.22,119.52v1.64c-2.52.03-5.05.06-7.57.1-9.87-5.7-19.72-11.39-29.59-17.09,1.76-1.02,3.52-2.04,5.28-3.05,10.63,6.13,21.25,12.27,31.88,18.4Z"/>
          <path class="cls-1" d="M497.22,113.41v6.11c-10.63-6.13-21.25-12.27-31.88-18.4,1.77-1.02,3.53-2.04,5.3-3.06,8.86,5.12,17.71,10.24,26.58,15.35Z"/>
          <path class="cls-4" d="M497.22,106.56v6.84c-5.9-6.83-11.8-13.65-17.7-20.47,1.31-.76,2.63-1.51,3.94-2.27,4.59,5.3,9.17,10.6,13.76,15.9Z"/>
          <path class="cls-1" d="M497.22,97.39v9.17c-4.59-5.3-9.17-10.6-13.76-15.9,1.76-1.02,3.53-2.04,5.29-3.06,2.82,3.27,5.65,6.53,8.47,9.79Z"/>
          <path class="cls-2" d="M496.26,45.51v4.44c-137.92,79.63-275.85,159.26-413.77,238.89v1.67c-1.29.74-2.57,1.48-3.85,2.22v-6.11C217.84,206.25,357.05,125.88,496.26,45.51Z"/>
          <path class="cls-1" d="M496.26,45.51C357.05,125.88,217.84,206.25,78.64,286.62c-1.76-1.02-3.53-2.04-5.29-3.05C211.27,203.94,349.19,124.31,487.12,44.68l3.85-2.23c1.76,1.02,3.52,2.04,5.29,3.06Z"/>
          <path class="cls-2" d="M487.12,44.67h0C349.19,124.31,211.27,203.94,73.35,283.57v1.66c-1.28.74-2.57,1.48-3.85,2.22v-6.1C208.71,200.97,347.91,120.6,487.12,40.23v4.44Z"/>
          <path class="cls-1" d="M487.12,40.23C347.91,120.6,208.71,200.97,69.5,281.35c-1.76-1.02-3.52-2.04-5.29-3.06C202.14,198.66,340.05,119.03,477.98,39.4c1.28-.74,2.57-1.48,3.85-2.22,1.76,1.02,3.53,2.04,5.29,3.05Z"/>
          <path class="cls-2" d="M477.98,34.96v4.44C340.05,119.03,202.14,198.66,64.21,278.29v1.67c-1.28.74-2.56,1.48-3.85,2.22v-6.11C199.57,195.7,338.78,115.33,477.98,34.96Z"/>
          <path class="cls-1" d="M477.98,34.96C338.78,115.33,199.57,195.7,60.36,276.07c-1.76-1.02-3.52-2.04-5.28-3.05C193,193.39,330.92,113.75,468.84,34.13l3.85-2.23c1.77,1.02,3.53,2.04,5.29,3.06Z"/>
          <path class="cls-2" d="M468.84,34.12h0C330.92,113.75,193,193.39,55.08,273.02v1.66c-1.29.74-2.57,1.48-3.85,2.22v-6.11C190.43,190.42,329.64,110.05,468.84,29.68v4.44Z"/>
          <path class="cls-1" d="M468.84,29.68C329.64,110.05,190.43,190.42,51.23,270.79c-1.77-1.01-3.53-2.03-5.29-3.05C183.86,188.11,321.78,108.48,459.71,28.85c1.28-.74,2.57-1.48,3.85-2.22,1.76,1.02,3.52,2.04,5.28,3.05Z"/>
          <path class="cls-2" d="M459.71,24.41v4.44C321.78,108.48,183.86,188.11,45.94,267.74v1.67c-1.28.74-2.57,1.48-3.85,2.22v-6.11C181.3,185.15,320.5,104.78,459.71,24.41Z"/>
          <path class="cls-1" d="M459.71,24.41C320.5,104.78,181.3,185.15,42.09,265.52c-1.76-1.02-3.53-2.04-5.29-3.05C174.73,182.83,312.64,103.2,450.57,23.58l3.85-2.23c1.76,1.02,3.52,2.04,5.29,3.06Z"/>
          <path class="cls-2" d="M450.57,23.57h0C312.64,103.2,174.73,182.83,36.8,262.47v1.66c-1.28.74-2.56,1.48-3.85,2.22v-6.11C172.16,179.87,311.37,99.5,450.57,19.13v4.44Z"/>
          <path class="cls-1" d="M450.57,19.13C311.37,99.5,172.16,179.87,32.95,260.24c-1.76-1.01-3.52-2.03-5.29-3.05C165.59,177.56,303.51,97.93,441.43,18.3c1.28-.74,2.57-1.48,3.85-2.22,1.76,1.02,3.53,2.03,5.29,3.05Z"/>
          <path class="cls-2" d="M441.43,13.86v4.44C303.51,97.93,165.59,177.56,27.66,257.19v1.67l-3.84,2.22v-6.11C163.02,174.6,302.23,94.23,441.43,13.86Z"/>
          <path class="cls-1" d="M441.43,13.86C302.23,94.23,163.02,174.6,23.82,254.97c-1.77-1.02-3.53-2.04-5.29-3.06C156.45,172.28,294.38,92.65,432.3,13.02l3.84-2.22c1.77,1.02,3.53,2.04,5.29,3.06Z"/>
          <path class="cls-2" d="M432.3,8.58v4.44C294.38,92.65,156.45,172.28,18.53,251.91v1.67c-1.29.74-2.57,1.48-3.85,2.22v-6.11C153.89,169.32,293.09,88.95,432.3,8.58Z"/>
          <path class="cls-1" d="M432.3,8.58C293.09,88.95,153.89,169.32,14.68,249.69c-1.76-1.01-3.53-2.03-5.29-3.05C147.32,167.01,285.23,87.38,423.16,7.75c1.28-.74,2.57-1.48,3.85-2.22,1.76,1.02,3.52,2.03,5.29,3.05Z"/>
          <path class="cls-2" d="M428.45,132.02v9.04c-1.76,1.02-3.53,2.04-5.29,3.06v-12.03c1.76-.03,3.53-.05,5.29-.07Z"/>
          <path class="cls-2" d="M423.16,144.12v6.1c-1.76,1.02-3.53,2.04-5.29,3.06v-12.22c1.76,1.02,3.53,2.04,5.29,3.06Z"/>
          <path class="cls-4" d="M423.16,132.09v12.03c-1.76-1.02-3.53-2.04-5.29-3.06v-6.43s.05-.03.07-.04v-2.43c1.74-.02,3.48-.05,5.22-.07Z"/>
          <path class="cls-2" d="M423.16,3.31v4.44C285.23,87.38,147.32,167.01,9.39,246.64v1.67c-1.28.74-2.56,1.48-3.85,2.22v-6.11C144.75,164.05,283.95,83.68,423.16,3.31Z"/>
          <path class="cls-1" d="M423.16,3.31C283.95,83.68,144.75,164.05,5.54,244.42c-1.76-1.02-3.52-2.04-5.29-3.06C139.46,160.99,278.66,80.62,417.87.25c1.76,1.02,3.53,2.04,5.29,3.06Z"/>
          <path class="cls-2" d="M417.94,132.16v2.43s-.05.03-.07.04c-1.74,1.01-3.48,2.01-5.22,3.02v-6.11c1.76-1.02,3.53-2.04,5.29-3.05v3.67Z"/>
          <path class="cls-4" d="M417.87,141.06v12.22c-1.74-1.01-3.48-2.01-5.22-3.02v-12.61c1.74-1.01,3.48-2.01,5.22-3.02v6.43Z"/>
          <path class="cls-2" d="M412.65,174.46v6.1c-1.76,1.02-3.53,2.04-5.29,3.06v-49.02h0s.01-.01.01-.01l5.28,3.06v36.81Z"/>
          <path class="cls-4" d="M412.65,131.54v6.11l-5.28-3.06c1.76-1.02,3.52-2.04,5.28-3.05Z"/>
          <path class="cls-4" d="M407.36,135.28v48.34c-1.76-1.02-3.53-2.04-5.29-3.06v-39.24c1.76-2.01,3.53-4.03,5.29-6.04Z"/>
          <path class="cls-2" d="M407.36,134.6v.68c-1.76,2.01-3.53,4.03-5.29,6.04-23.21,26.48-46.41,52.96-69.61,79.43-3.23,3.68-6.45,7.35-9.67,11.03v-6.79c24.58-28.05,49.16-56.1,73.74-84.14,3.61-2.09,7.22-4.17,10.83-6.25Z"/>
          <path class="cls-1" d="M407.36,183.62c-28.19,16.27-56.38,32.55-84.57,48.82v-.66c3.22-3.68,6.44-7.35,9.67-11.03,23.2-13.39,46.41-26.79,69.61-40.19,1.76,1.02,3.53,2.04,5.29,3.06Z"/>
          <path class="cls-1" d="M396.53,140.85c-24.58,28.04-49.16,56.09-73.74,84.14v-9.09c19.21-21.92,38.41-43.83,57.61-65.74,5.38-3.11,10.75-6.21,16.13-9.31Z"/>
          <path class="cls-2" d="M322.79,238.55v67.35c-1.76,1.02-3.52,2.04-5.29,3.06v-122.48h0c1.76-1.02,3.53-2.04,5.29-3.06v55.13Z"/>
          <path class="cls-2" d="M317.5,308.96v12.21c-1.76,1.02-3.52,2.04-5.29,3.06v-24.44c1.77-1.01,3.53-2.03,5.29-3.05v12.22Z"/>
          <path class="cls-4" d="M317.5,253.82v42.92c-1.76-1.02-3.52-2.04-5.29-3.05v-36.81c1.77-1.02,3.53-2.04,5.29-3.06Z"/>
          <path class="cls-2" d="M317.5,247.71v6.11c-1.76,1.02-3.52,2.04-5.29,3.06v-6.11c1.77-1.02,3.53-2.04,5.29-3.06Z"/>
          <path class="cls-2" d="M317.5,233.54v14.17c-1.76,1.02-3.52,2.04-5.29,3.06v-14.21h.06l5.23-3.02Z"/>
          <path class="cls-4" d="M317.5,192.58v40.96l-5.29-3.05v-34.86c1.77-1.01,3.53-2.03,5.29-3.05Z"/>
          <path class="cls-2" d="M317.5,186.48v6.1c-1.76,1.02-3.52,2.04-5.29,3.05v-6.1c1.76-1.02,3.53-2.04,5.29-3.05Z"/>
          <path class="cls-1" d="M317.5,233.54l-5.23,3.02h-.06v-6.07l5.29,3.05Z"/>
          <path class="cls-1" d="M317.5,296.74c-1.76,1.02-3.52,2.04-5.29,3.05v-6.1c1.77,1.01,3.53,2.03,5.29,3.05Z"/>
          <path class="cls-4" d="M312.21,312.01v12.22c-1.76-1.02-3.52-2.04-5.29-3.06v-6.11c1.77-1.01,3.53-2.03,5.29-3.05Z"/>
          <path class="cls-2" d="M312.21,299.79v12.22c-1.76,1.02-3.52,2.04-5.29,3.05v-122.48c1.77-1.02,3.53-2.04,5.29-3.05v110.26Z"/>
          <path class="cls-4" d="M306.92,192.58v122.48c-1.76-1.01-3.52-2.03-5.29-3.05v-116.38c1.76-1.01,3.53-2.03,5.29-3.05Z"/>
          <path class="cls-2" d="M301.63,244.66v6.11c-61.66,35.6-123.33,71.21-185,106.81v-6.11c1.37-.79,2.75-1.58,4.12-2.38l85.74-49.5c1.76-1.02,3.52-2.03,5.29-3.05,28.57-16.5,57.15-33,85.73-49.5,1.38-.79,2.75-1.59,4.12-2.38Z"/>
          <path class="cls-2" d="M301.63,240.19v4.47c-1.37.79-2.74,1.59-4.12,2.38l-10.83.15c-21.57.29-43.15.58-64.72.87h-.01c-1.63.03-3.25.05-4.88.07v-3.67c1.85-1.07,3.69-2.13,5.54-3.2,26.34-.36,52.68-.72,79.02-1.07Z"/>
          <path class="cls-1" d="M301.63,237.06v3.13c-26.34.35-52.68.71-79.02,1.07,1.85-1.06,3.69-2.13,5.54-3.2,16.77-.23,33.53-.46,50.29-.68,3.45-.05,6.89-.1,10.33-.15,3.45-.04,6.89-.09,10.34-.14l2.52-.03Z"/>
          <path class="cls-1" d="M299.11,237.09c-3.45.05-6.89.1-10.34.14-9.86-5.69-19.73-11.39-29.59-17.08,1.76-1.02,3.53-2.04,5.29-3.06,11.54,6.67,23.09,13.34,34.64,20Z"/>
          <path class="cls-1" d="M297.51,247.04c-28.58,16.5-57.16,33-85.73,49.5v-6.11c24.96-14.41,49.93-28.83,74.9-43.24l10.83-.15Z"/>
          <path class="cls-4" d="M288.77,237.23c-3.44.05-6.88.1-10.33.15h0c-8.19-4.73-16.37-9.45-24.55-14.18,1.76-1.02,3.53-2.04,5.29-3.05,9.86,5.69,19.73,11.39,29.59,17.08Z"/>
          <path class="cls-2" d="M221.95,248.06c-1.66.96-3.3,1.91-4.95,2.87v-.32s.05-.03.07-.04v-2.44c1.63-.02,3.25-.04,4.88-.07Z"/>
          <path class="cls-2" d="M217.07,248.13v2.44s-.05.03-.07.04c-1.75,1-3.48,2-5.22,3.01v-6.11c1.74-1,3.48-2.01,5.22-3.01.02-.01.04-.03.07-.04v3.67Z"/>
          <path class="cls-2" d="M217,250.93v12.21c-1.74,1.01-3.48,2.01-5.22,3.02v-12.54c1.74-1.01,3.47-2.01,5.22-3.01v.32Z"/>
          <path class="cls-2" d="M211.78,290.43v6.11c-1.77,1.02-3.53,2.03-5.29,3.05v-49.02c1.76,1.01,3.52,2.03,5.29,3.05v36.81Z"/>
          <path class="cls-4" d="M211.78,247.51v6.11c-1.77-1.02-3.53-2.04-5.29-3.05,1.76-1.02,3.53-2.04,5.29-3.06Z"/>
          <path class="cls-4" d="M206.49,251.26v48.33c-1.77-1.02-3.53-2.03-5.29-3.05v-39.24h0c1.77-2.02,3.53-4.03,5.29-6.04Z"/>
          <path class="cls-2" d="M206.49,250.57v.69c-1.76,2.01-3.52,4.02-5.29,6.03h0c-23.21,26.49-46.41,52.96-69.61,79.44-3.62,4.12-7.23,8.24-10.84,12.36-1.37.8-2.75,1.59-4.12,2.38v-4.47c26.34-30.06,52.67-60.11,79.01-90.17h.01c3.61-2.09,7.22-4.18,10.84-6.26Z"/>
          <path class="cls-1" d="M206.49,299.59l-85.74,49.5c3.61-4.12,7.22-8.24,10.84-12.36,23.2-13.4,46.4-26.79,69.61-40.19,1.76,1.02,3.52,2.03,5.29,3.05Z"/>
          <path class="cls-1" d="M195.64,256.83c-26.34,30.06-52.67,60.11-79.01,90.17v-9.09c20.97-23.93,41.93-47.85,62.9-71.78l16.11-9.3Z"/>
          <path class="cls-2" d="M116.63,357.58v67.35c-1.76,1.02-3.53,2.04-5.29,3.05v-122.48c1.76-1.02,3.53-2.04,5.29-3.05v55.13Z"/>
          <path class="cls-2" d="M111.34,427.98v6.11c-1.76,1.02-3.53,2.04-5.29,3.06v-12.22c1.76,1.02,3.53,2.04,5.29,3.05Z"/>
          <path class="cls-4" d="M111.34,372.85v55.13c-1.76-1.01-3.53-2.03-5.29-3.05v-49.03c1.76-1.01,3.53-2.03,5.29-3.05Z"/>
          <path class="cls-2" d="M111.34,366.74v6.11c-1.76,1.02-3.53,2.04-5.29,3.05v-6.1c1.76-1.02,3.53-2.04,5.29-3.06Z"/>
          <path class="cls-4" d="M111.34,311.61v55.13c-1.76-1.02-3.53-2.03-5.29-3.05v-49.03c1.76-1.02,3.53-2.03,5.29-3.05Z"/>
          <path class="cls-2" d="M111.34,305.5v6.11c-1.76,1.02-3.53,2.03-5.29,3.05v-6.11c1.76-1.02,3.53-2.04,5.29-3.05Z"/>
          <path class="cls-1" d="M111.34,366.74c-1.76,1.02-3.53,2.04-5.29,3.06-1.76-1.02-3.53-2.04-5.29-3.06,1.76-1.02,3.53-2.03,5.29-3.05,1.76,1.02,3.53,2.03,5.29,3.05Z"/>
          <path class="cls-4" d="M106.05,424.93v12.22c-1.76-1.02-3.53-2.04-5.29-3.06v-24.43c1.76,1.02,3.53,2.04,5.29,3.05v12.22Z"/>
          <path class="cls-1" d="M106.05,406.61v6.1c-1.76-1.01-3.53-2.03-5.29-3.05,1.76-1.02,3.53-2.04,5.29-3.05Z"/>
          <path class="cls-2" d="M106.05,375.9v30.71c-1.76,1.01-3.53,2.03-5.29,3.05v-36.81c1.76,1.01,3.53,2.03,5.29,3.05Z"/>
          <path class="cls-4" d="M106.05,369.8v6.1c-1.76-1.02-3.53-2.04-5.29-3.05-24.69-14.26-49.37-28.51-74.06-42.76-1.76-1.02-3.53-2.04-5.29-3.05-1.76-1.02-3.53-2.04-5.29-3.06s-3.53-2.03-5.29-3.05-3.53-2.04-5.29-3.05c-1.76-1.02-3.53-2.04-5.29-3.06v-6.11c1.77,1.02,3.53,2.04,5.29,3.06,1.77,1.02,3.53,2.04,5.29,3.05,28.22,16.29,56.43,32.58,84.64,48.87,1.76,1.02,3.53,2.03,5.29,3.05s3.53,2.04,5.29,3.06Z"/>
          <path class="cls-2" d="M106.05,357.58v6.11c-1.76,1.02-3.53,2.03-5.29,3.05v-6.11c1.76-1.01,3.53-2.03,5.29-3.05Z"/>
          <path class="cls-1" d="M106.05,354.53v3.05c-1.76,1.02-3.53,2.04-5.29,3.05-1.76-1.01-3.53-2.03-5.29-3.05,1.76-1.02,3.53-2.04,5.29-3.05h0l2.64-1.53c.89.51,1.77,1.02,2.65,1.53Z"/>
          <path class="cls-1" d="M106.05,349.98v4.55c-.88-.51-1.76-1.02-2.65-1.53.89-1.01,1.77-2.01,2.65-3.02Z"/>
          <path class="cls-2" d="M106.05,314.66v35.32c-.88,1.01-1.76,2.01-2.65,3.02-.88.51-1.76,1.02-2.64,1.52v-42.91c1.76,1.01,3.53,2.03,5.29,3.05Z"/>
          <path class="cls-4" d="M106.05,308.55v6.11c-1.76-1.02-3.53-2.04-5.29-3.05-1.76-1.02-3.53-2.04-5.29-3.06-12.29-7.1-24.59-14.2-36.89-21.29-1.76-1.02-3.52-2.04-5.29-3.06-1.76-1.02-3.52-2.04-5.29-3.05-6.7-3.87-13.4-7.74-20.11-11.61-5.28-3.05-10.56-6.1-15.84-9.15-3.93-2.27-7.86-4.54-11.8-6.81v-6.11c1.77,1.02,3.53,2.04,5.29,3.06,1.29.74,2.57,1.48,3.85,2.22,1.76,1.02,3.53,2.03,5.29,3.05,1.28.74,2.56,1.48,3.85,2.22,1.76,1.02,3.52,2.04,5.29,3.06l3.84,2.22c1.77,1.02,3.53,2.03,5.29,3.05,1.29.74,2.57,1.48,3.85,2.22,1.76,1.02,3.53,2.04,5.29,3.06,1.28.74,2.57,1.48,3.85,2.22,1.76,1.02,3.52,2.03,5.29,3.05,1.28.74,2.56,1.48,3.85,2.22l5.28,3.06c1.29.74,2.57,1.48,3.85,2.22,1.77,1.02,3.53,2.04,5.29,3.05,1.28.74,2.57,1.48,3.85,2.22,1.76,1.02,3.53,2.04,5.29,3.06,1.28.74,2.56,1.48,3.85,2.22,1.76,1.02,3.52,2.04,5.29,3.05l3.84,2.22c1.77,1.02,3.53,2.04,5.29,3.06,1.29.74,2.57,1.48,3.85,2.22,1.76,1.02,3.53,2.04,5.29,3.05Z"/>
          <path class="cls-4" d="M106.05,302.45v6.1c-1.76-1.01-3.53-2.03-5.29-3.05v-6.11c1.76,1.02,3.53,2.04,5.29,3.06Z"/>
          <path class="cls-4" d="M100.76,409.66v12.22c-1.76-1.02-3.53-2.04-5.29-3.06v-49.02l-68.77-39.71c24.69,14.25,49.37,28.5,74.06,42.76v36.81Z"/>
          <path class="cls-4" d="M100.76,360.63v6.11c-1.76-1.02-3.53-2.03-5.29-3.05v-6.11c1.76,1.02,3.53,2.04,5.29,3.05Z"/>
          <path class="cls-4" d="M100.76,354.52h0c-1.76,1.02-3.53,2.04-5.29,3.06v-.72c1.76-1.02,3.53-2.04,5.29-3.06v.72Z"/>
          <path class="cls-4" d="M100.76,311.61v42.19c-1.76-2.04-3.53-4.08-5.29-6.12v-39.13c1.76,1.02,3.53,2.04,5.29,3.06Z"/>
          <path class="cls-1" d="M100.76,301.06v4.44c-1.28-.74-2.56-1.48-3.85-2.22,1.29-.74,2.57-1.48,3.85-2.22Z"/>
          <path class="cls-1" d="M95.47,347.68c1.76,2.04,3.53,4.08,5.29,6.12-1.76,1.02-3.53,2.04-5.29,3.06-27.81-32.16-55.61-64.31-83.42-96.47,5.28,3.05,10.56,6.1,15.84,9.15,4.47,5.16,8.93,10.33,13.4,15.49,1.17,1.36,2.34,2.71,3.52,4.07,1.17,1.36,2.34,2.71,3.52,4.07,15.71,18.17,31.42,36.34,47.14,54.51Z"/>
          <path class="cls-4" d="M96.91,297.17v6.11c-1.76-1.02-3.52-2.04-5.29-3.06v-6.1c1.77,1.01,3.53,2.03,5.29,3.05Z"/>
          <path class="cls-4" d="M95.47,357.58v6.11c-3.52-4.07-7.03-8.13-10.55-12.2-15.27-17.66-30.55-35.33-45.82-52.99-1.18-1.36-2.35-2.71-3.52-4.07-1.18-1.36-2.36-2.72-3.53-4.08-1.78-2.06-3.57-4.12-5.35-6.18-1.76-2.04-3.52-4.08-5.29-6.12-1.76-2.04-3.53-4.08-5.29-6.12-1.77-2.04-3.53-4.08-5.29-6.12-1.77-2.04-3.53-4.07-5.29-6.11s-3.53-4.08-5.29-6.12c3.94,2.27,7.87,4.54,11.8,6.81,27.81,32.16,55.61,64.31,83.42,96.47v.72Z"/>
          <path class="cls-1" d="M84.92,351.49c3.52,4.07,7.03,8.13,10.55,12.2-28.21-16.29-56.42-32.58-84.64-48.87,1.77-1.02,3.53-2.03,5.29-3.05,1.76,1.02,3.53,2.04,5.29,3.05,1.77,1.02,3.53,2.04,5.29,3.06,19.41,11.2,38.82,22.41,58.22,33.61Z"/>
          <path class="cls-1" d="M91.62,295.78v4.44l-3.84-2.22,3.84-2.22Z"/>
          <path class="cls-4" d="M87.78,291.9v6.1c-1.77-1.01-3.53-2.03-5.29-3.05v-6.11c1.76,1.02,3.52,2.04,5.29,3.06Z"/>
          <path class="cls-1" d="M82.49,290.51v4.44c-1.29-.74-2.57-1.48-3.85-2.22,1.28-.74,2.56-1.48,3.85-2.22Z"/>
          <path class="cls-4" d="M78.64,286.62v6.11c-1.76-1.02-3.53-2.04-5.29-3.06v-6.1c1.76,1.01,3.53,2.03,5.29,3.05Z"/>
          <path class="cls-1" d="M73.35,285.23v4.44c-1.28-.74-2.57-1.48-3.85-2.22,1.28-.74,2.57-1.48,3.85-2.22Z"/>
          <path class="cls-4" d="M69.5,281.35v6.1c-1.76-1.01-3.52-2.03-5.29-3.05v-6.11c1.77,1.02,3.53,2.04,5.29,3.06Z"/>
          <path class="cls-1" d="M64.21,279.96v4.44c-1.28-.74-2.56-1.48-3.85-2.22,1.29-.74,2.57-1.48,3.85-2.22Z"/>
          <path class="cls-4" d="M60.36,276.07v6.11l-5.28-3.06v-6.1c1.76,1.01,3.52,2.03,5.28,3.05Z"/>
          <path class="cls-2" d="M53.29,284.2c1.77,1.02,3.53,2.04,5.29,3.06-3.42,1.97-6.83,3.94-10.25,5.91-1.18-1.36-2.35-2.71-3.52-4.07,2.83-1.63,5.65-3.27,8.48-4.9Z"/>
          <path class="cls-1" d="M55.08,274.68v4.44c-1.29-.74-2.57-1.48-3.85-2.22,1.28-.74,2.56-1.48,3.85-2.22Z"/>
          <path class="cls-1" d="M53.29,284.2c-2.83,1.63-5.65,3.27-8.48,4.9-1.18-1.36-2.35-2.71-3.52-4.07,2.23-1.3,4.47-2.59,6.71-3.88,1.77,1.01,3.53,2.03,5.29,3.05Z"/>
          <path class="cls-4" d="M51.23,270.79v6.11c-1.77-1.02-3.53-2.03-5.29-3.05v-6.11c1.76,1.02,3.52,2.04,5.29,3.05Z"/>
          <path class="cls-1" d="M45.94,269.41v4.44c-1.28-.74-2.57-1.48-3.85-2.22,1.28-.74,2.57-1.48,3.85-2.22Z"/>
          <path class="cls-4" d="M42.09,265.52v6.11c-1.76-1.02-3.53-2.04-5.29-3.06v-6.1c1.76,1.01,3.53,2.03,5.29,3.05Z"/>
          <path class="cls-2" d="M39.1,298.5c-4.13,2.39-8.26,4.77-12.4,7.16v-6.11c2.96-1.71,5.92-3.41,8.88-5.12,1.17,1.36,2.34,2.71,3.52,4.07Z"/>
          <path class="cls-1" d="M36.8,264.13v4.44c-1.28-.74-2.56-1.48-3.85-2.22,1.29-.74,2.57-1.48,3.85-2.22Z"/>
          <path class="cls-1" d="M35.58,294.43c-2.96,1.71-5.92,3.41-8.88,5.12v-6.11c1.79-1.03,3.57-2.06,5.35-3.09,1.17,1.36,2.35,2.72,3.53,4.08Z"/>
          <path class="cls-4" d="M32.95,260.24v6.11c-1.76-1.02-3.52-2.03-5.29-3.05v-6.11c1.77,1.02,3.53,2.04,5.29,3.05Z"/>
          <path class="cls-1" d="M27.66,258.86v4.44l-3.84-2.22,3.84-2.22Z"/>
          <path class="cls-2" d="M26.7,330.09v42.92c-1.76,1.02-3.52,2.04-5.29,3.06v-49.03c1.76,1.01,3.53,2.03,5.29,3.05Z"/>
          <path class="cls-2" d="M26.7,305.66v12.22c-1.76-1.02-3.52-2.04-5.29-3.06v-36.77c1.77,2.04,3.53,4.08,5.29,6.12v21.49Z"/>
          <path class="cls-4" d="M23.82,254.97v6.11c-1.77-1.02-3.53-2.04-5.29-3.06v-6.11c1.76,1.02,3.52,2.04,5.29,3.06Z"/>
          <path class="cls-2" d="M21.41,376.07v6.1c-1.76,1.02-3.52,2.04-5.29,3.06v-12.22c1.77,1.02,3.53,2.04,5.29,3.06Z"/>
          <path class="cls-4" d="M21.41,327.04v49.03c-1.76-1.02-3.52-2.04-5.29-3.06v-49.02h0c1.76,1.01,3.53,2.03,5.29,3.05Z"/>
          <path class="cls-4" d="M21.41,278.05v36.77c-1.76-1.01-3.53-2.03-5.29-3.05v-39.84c1.76,2.04,3.53,4.08,5.29,6.12Z"/>
          <path class="cls-1" d="M18.53,253.58v4.44c-1.29-.74-2.57-1.48-3.85-2.22,1.28-.74,2.56-1.48,3.85-2.22Z"/>
          <path class="cls-4" d="M16.12,373.01v12.22c-1.76-1.02-3.52-2.04-5.29-3.06v-24.43c1.77,1.02,3.53,2.04,5.29,3.05v12.22Z"/>
          <path class="cls-1" d="M16.12,354.69v6.1c-1.76-1.01-3.52-2.03-5.29-3.05,1.77-1.02,3.53-2.04,5.29-3.05Z"/>
          <path class="cls-2" d="M16.12,323.99v30.7c-1.76,1.01-3.52,2.03-5.29,3.05v-36.81c1.76,1.02,3.53,2.03,5.29,3.05h0Z"/>
          <path class="cls-2" d="M16.12,305.66v6.11c-1.76,1.02-3.52,2.03-5.29,3.05v-6.11c1.77-1.01,3.53-2.03,5.29-3.05Z"/>
          <path class="cls-1" d="M16.12,299.55v6.11c-1.76,1.02-3.52,2.04-5.29,3.05-1.76-1.01-3.52-2.03-5.29-3.05,1.76-1.02,3.53-2.04,5.29-3.05,1.77-1.02,3.53-2.04,5.29-3.06Z"/>
          <path class="cls-2" d="M16.12,271.93v27.62c-1.76,1.02-3.52,2.04-5.29,3.06v-36.8c1.76,2.04,3.52,4.08,5.29,6.12Z"/>
          <path class="cls-4" d="M14.68,249.69v6.11c-1.76-1.02-3.53-2.03-5.29-3.05v-6.11c1.76,1.02,3.53,2.04,5.29,3.05Z"/>
          <path class="cls-4" d="M10.83,357.74v12.22c-1.76-1.02-3.52-2.04-5.29-3.06v-49.02c1.76,1.01,3.53,2.03,5.29,3.05v36.81Z"/>
          <path class="cls-4" d="M10.83,308.71v6.11c-1.76-1.01-3.52-2.03-5.29-3.05v-6.11c1.77,1.02,3.53,2.04,5.29,3.05Z"/>
          <path class="cls-4" d="M10.83,265.81v36.8c-1.76,1.01-3.53,2.03-5.29,3.05v-45.96c1.76,2.04,3.52,4.07,5.29,6.11Z"/>
          <path class="cls-1" d="M9.39,248.31v4.44c-1.28-.74-2.56-1.48-3.85-2.22,1.29-.74,2.57-1.48,3.85-2.22Z"/>
          <path class="cls-1" d="M5.54,305.66v6.11c-1.76-1.02-3.52-2.04-5.29-3.06,1.77-1.01,3.53-2.03,5.29-3.05Z"/>
          <path class="cls-4" d="M5.54,244.42v6.11c-1.76-1.02-3.52-2.04-5.29-3.06v-6.11c1.77,1.02,3.53,2.04,5.29,3.06Z"/>
        </g>
        <g>
          <line class="cls-3" x1="95.47" y1="369.8" x2="26.7" y2="330.09"/>
          <line class="cls-3" x1="487.12" y1="44.68" x2="490.97" y2="42.45"/>
          <line class="cls-3" x1="468.84" y1="34.13" x2="472.69" y2="31.9"/>
          <line class="cls-3" x1="450.57" y1="23.58" x2="454.42" y2="21.35"/>
          <path class="cls-3" d="M468.84,34.13C330.92,113.75,193,193.39,55.08,273.02"/>
          <path class="cls-3" d="M472.69,31.9c-1.28.74-2.57,1.48-3.85,2.22"/>
          <path class="cls-3" d="M463.56,26.63c-1.28.74-2.57,1.48-3.85,2.22C321.78,108.48,183.86,188.11,45.94,267.74"/>
          <path class="cls-3" d="M487.12,44.68C349.19,124.31,211.27,203.94,73.35,283.57"/>
          <path class="cls-3" d="M490.97,42.45c-1.28.74-2.57,1.48-3.85,2.22"/>
          <path class="cls-3" d="M82.49,290.51c-1.29.74-2.57,1.48-3.85,2.22"/>
          <path class="cls-3" d="M481.83,37.18c-1.28.74-2.57,1.48-3.85,2.22C340.05,119.03,202.14,198.66,64.21,278.29"/>
          <path class="cls-3" d="M427.01,5.53c-1.28.74-2.57,1.48-3.85,2.22C285.23,87.38,147.32,167.01,9.39,246.64"/>
          <path class="cls-3" d="M9.39,248.31c-1.28.74-2.56,1.48-3.85,2.22"/>
          <path class="cls-3" d="M201.2,257.29c1.77-2.01,3.53-4.02,5.29-6.03"/>
          <path class="cls-3" d="M120.75,349.09c3.61-4.12,7.22-8.24,10.84-12.36,23.2-26.48,46.4-52.95,69.61-79.43"/>
          <path class="cls-3" d="M518.38,192.98v-122.48"/>
          <path class="cls-3" d="M497.22,121.16v-7.75h0v-30.69"/>
          <path class="cls-3" d="M26.7,317.88v-33.71"/>
          <path class="cls-3" d="M518.38,58.28c-1.28.74-2.57,1.48-3.85,2.22-137.93,79.63-275.84,159.26-413.77,238.89"/>
          <path class="cls-3" d="M195.64,256.83l-16.11,9.3c-20.97,12.1-41.94,24.21-62.9,36.32-1.76,1.01-3.53,2.03-5.29,3.05-1.76,1.01-3.53,2.03-5.29,3.05"/>
          <path class="cls-3" d="M217,244.5c-1.74,1-3.48,2.01-5.22,3.01-1.76,1.02-3.53,2.04-5.29,3.06-3.62,2.08-7.23,4.17-10.84,6.25"/>
          <path class="cls-3" d="M306.92,192.58c-1.76,1.02-3.53,2.04-5.29,3.05-.01.01-.02.02-.03.02-12.38,7.15-24.75,14.29-37.13,21.44-1.76,1.02-3.53,2.04-5.29,3.06-1.76,1.01-3.53,2.03-5.29,3.05-8.58,4.95-17.16,9.91-25.74,14.86-1.85,1.07-3.69,2.14-5.54,3.2-1.85,1.07-3.69,2.13-5.54,3.2"/>
          <path class="cls-3" d="M317.5,186.48c-1.76,1.01-3.53,2.03-5.29,3.05"/>
          <path class="cls-3" d="M407.36,134.6c-3.61,2.08-7.22,4.16-10.83,6.25-5.38,3.1-10.75,6.2-16.13,9.31-19.2,11.09-38.41,22.17-57.61,33.26-1.76,1.02-3.53,2.04-5.29,3.05"/>
          <path class="cls-3" d="M429.03,122.08c-1.84,1.07-3.69,2.13-5.53,3.2-1.85,1.06-3.71,2.13-5.56,3.21-1.76,1.01-3.53,2.03-5.29,3.05-1.76,1.01-3.52,2.03-5.28,3.05"/>
          <path class="cls-3" d="M460.05,104.17c-10.34,5.97-20.67,11.94-31.01,17.91"/>
          <path class="cls-3" d="M518.38,70.5c-1.76,1.02-3.53,2.04-5.29,3.05-1.76,1.02-3.53,2.04-5.29,3.06s-3.53,2.03-5.29,3.05-3.53,2.04-5.29,3.05h0c-2.82,1.63-5.65,3.26-8.47,4.89-1.76,1.02-3.53,2.04-5.29,3.06-1.31.76-2.63,1.51-3.94,2.27l-8.88,5.13c-1.77,1.02-3.53,2.04-5.3,3.06-1.76,1.01-3.52,2.03-5.28,3.05"/>
          <path class="cls-3" d="M509.24,53.01c-1.28.74-2.57,1.48-3.85,2.22-137.93,79.63-275.84,159.26-413.77,238.89"/>
          <path class="cls-3" d="M100.76,301.06c-1.28.74-2.56,1.48-3.85,2.22"/>
          <path class="cls-3" d="M500.1,47.73l-3.84,2.22c-137.92,79.63-275.85,159.26-413.77,238.89"/>
          <path class="cls-3" d="M317.5,321.17v-24.43"/>
          <path class="cls-3" d="M498.39,131.06c-3.61.05-7.23.1-10.84.15-19.7.27-39.4.54-59.1.81-1.76.02-3.53.04-5.29.07-1.74.02-3.48.05-5.22.07"/>
          <path class="cls-3" d="M505.15,121.05c-.88.01-1.76.02-2.64.04-1.76.02-3.53.04-5.29.07-2.52.03-5.05.06-7.57.1-20.2.27-40.41.55-60.61.82h-.01"/>
          <path class="cls-3" d="M445.28,16.08c-1.28.74-2.57,1.48-3.85,2.22C303.51,97.93,165.59,177.56,27.66,257.19"/>
          <path class="cls-3" d="M322.79,305.9v-122.48"/>
          <path class="cls-3" d="M211.78,296.54v-42.92"/>
          <path class="cls-3" d="M412.65,180.56v-42.91"/>
          <path class="cls-3" d="M16.12,311.77c1.76,1.02,3.53,2.04,5.29,3.05,1.77,1.02,3.53,2.04,5.29,3.06,19.41,11.2,38.82,22.41,58.22,33.61"/>
          <path class="cls-3" d="M.25,314.82c1.76,1.02,3.53,2.04,5.29,3.06,1.76,1.01,3.53,2.03,5.29,3.05s3.53,2.03,5.29,3.05,3.53,2.04,5.29,3.06c1.76,1.01,3.53,2.03,5.29,3.05,24.69,14.25,49.37,28.5,74.06,42.76,1.76,1.01,3.53,2.03,5.29,3.05"/>
          <path class="cls-3" d="M436.14,10.8l-3.84,2.22C294.38,92.65,156.45,172.28,18.53,251.91"/>
          <path class="cls-3" d="M322.79,231.78c3.22-3.68,6.44-7.35,9.67-11.03,23.2-26.47,46.4-52.95,69.61-79.43,1.76-2.01,3.53-4.03,5.29-6.04"/>
          <path class="cls-3" d="M450.57,23.58C312.64,103.2,174.73,182.83,36.8,262.47"/>
          <path class="cls-3" d="M454.42,21.35c-1.28.74-2.57,1.48-3.85,2.22"/>
          <path class="cls-3" d="M221.95,248.06c-1.63.03-3.25.05-4.88.07"/>
          <path class="cls-3" d="M297.51,247.04l-10.83.15c-21.57.29-43.15.58-64.72.87"/>
          <path class="cls-3" d="M301.63,237.06l-2.52.03c-3.45.05-6.89.1-10.34.14-3.44.05-6.88.1-10.33.15-16.76.22-33.52.45-50.29.68"/>
          <path class="cls-3" d="M116.63,424.93v-122.48"/>
          <path class="cls-3" d="M507.8,131.74c-1.76,1.02-3.53,2.04-5.29,3.05-1.76,1.02-3.53,2.04-5.29,3.06-58.14,33.56-116.29,67.14-174.43,100.7"/>
          <path class="cls-3" d="M301.63,250.77v-55.14"/>
          <path class="cls-3" d="M312.21,312.01v-122.48"/>
          <path class="cls-3" d="M12.05,260.39c5.28,3.05,10.56,6.1,15.84,9.15,6.71,3.87,13.41,7.74,20.11,11.61,1.77,1.01,3.53,2.03,5.29,3.05,1.77,1.02,3.53,2.04,5.29,3.06,12.3,7.09,24.6,14.19,36.89,21.29,1.76,1.02,3.53,2.04,5.29,3.06,1.76,1.01,3.53,2.03,5.29,3.05"/>
          <path class="cls-3" d="M100.76,353.8c-1.76-2.04-3.53-4.08-5.29-6.12-15.72-18.17-31.43-36.34-47.14-54.51-1.18-1.36-2.35-2.71-3.52-4.07-1.18-1.36-2.35-2.71-3.52-4.07-4.47-5.16-8.93-10.33-13.4-15.49"/>
          <path class="cls-3" d="M100.76,354.52v-.72"/>
          <path class="cls-3" d="M95.47,363.69c-3.52-4.07-7.03-8.13-10.55-12.2-15.27-17.66-30.55-35.33-45.82-52.99-1.18-1.36-2.35-2.71-3.52-4.07-1.18-1.36-2.36-2.72-3.53-4.08-1.78-2.06-3.57-4.12-5.35-6.18-1.76-2.04-3.52-4.08-5.29-6.12-1.76-2.04-3.53-4.08-5.29-6.12-1.77-2.04-3.53-4.08-5.29-6.12-1.77-2.04-3.53-4.07-5.29-6.11s-3.53-4.08-5.29-6.12"/>
          <path class="cls-3" d="M10.83,382.17v-24.43"/>
          <path class="cls-3" d="M502.51,202.14v-24.43"/>
          <path class="cls-3" d="M100.76,434.09v-24.43"/>
          <path class="cls-3" d="M55.08,273.02v6.1"/>
          <path class="cls-3" d="M60.36,276.07c-1.76-1.02-3.52-2.04-5.28-3.05"/>
          <path class="cls-3" d="M477.98,34.96C338.78,115.33,199.57,195.7,60.36,276.07"/>
          <path class="cls-3" d="M45.94,267.74v6.11"/>
          <path class="cls-3" d="M51.23,270.79c-1.77-1.01-3.53-2.03-5.29-3.05"/>
          <path class="cls-3" d="M468.84,29.68C329.64,110.05,190.43,190.42,51.23,270.79"/>
          <path class="cls-3" d="M73.35,283.57v6.1"/>
          <path class="cls-3" d="M496.26,45.51C357.05,125.88,217.84,206.25,78.64,286.62"/>
          <path class="cls-3" d="M496.26,49.95v-4.44"/>
          <path class="cls-3" d="M64.21,278.29v6.11"/>
          <path class="cls-3" d="M69.5,281.35c-1.76-1.02-3.52-2.04-5.29-3.06"/>
          <path class="cls-3" d="M487.12,40.23C347.91,120.6,208.71,200.97,69.5,281.35"/>
          <path class="cls-3" d="M9.39,246.64v6.11"/>
          <path class="cls-3" d="M14.68,249.69c-1.76-1.01-3.53-2.03-5.29-3.05"/>
          <path class="cls-3" d="M18.53,253.58c-1.29.74-2.57,1.48-3.85,2.22"/>
          <path class="cls-3" d="M432.3,8.58C293.09,88.95,153.89,169.32,14.68,249.69"/>
          <path class="cls-3" d="M423.16,3.31C283.95,83.68,144.75,164.05,5.54,244.42"/>
          <path class="cls-3" d="M116.63,347c26.34-30.06,52.67-60.11,79.01-90.17h.01"/>
          <path class="cls-3" d="M507.8,192.98v-116.37"/>
          <path class="cls-3" d="M513.09,196.04v-122.49"/>
          <path class="cls-3" d="M502.51,121.09v-41.43"/>
          <path class="cls-3" d="M16.12,311.77v-39.84"/>
          <path class="cls-3" d="M16.12,373.01v-49.02"/>
          <path class="cls-3" d="M21.41,314.82v-36.77"/>
          <path class="cls-3" d="M21.41,376.07v-49.03"/>
          <path class="cls-3" d="M100.76,299.39v6.11"/>
          <path class="cls-3" d="M523.67,61.33c-139.21,80.38-278.41,160.75-417.62,241.12"/>
          <path class="cls-3" d="M91.62,294.12v6.1"/>
          <path class="cls-3" d="M96.91,297.17c-1.76-1.02-3.52-2.04-5.29-3.05"/>
          <path class="cls-3" d="M514.53,56.06c-139.21,80.37-278.41,160.74-417.62,241.11"/>
          <path class="cls-3" d="M82.49,288.84v6.11"/>
          <path class="cls-3" d="M505.39,50.78c-139.2,80.37-278.41,160.75-417.61,241.12"/>
          <path class="cls-3" d="M301.6,195.65h.03"/>
          <path class="cls-3" d="M507.8,125.63c-3.14,1.81-6.28,3.62-9.41,5.43"/>
          <path class="cls-3" d="M507.8,124.14c-28.1.38-56.2.76-84.3,1.14h-.02"/>
          <path class="cls-3" d="M27.66,257.19v6.11"/>
          <path class="cls-3" d="M32.95,260.24c-1.76-1.01-3.52-2.03-5.29-3.05"/>
          <path class="cls-3" d="M450.57,19.13C311.37,99.5,172.16,179.87,32.95,260.24"/>
          <path class="cls-3" d="M317.5,233.54v-40.96"/>
          <path class="cls-3" d="M206.49,299.59v-48.33"/>
          <path class="cls-3" d="M407.36,183.62v-48.34"/>
          <path class="cls-3" d="M10.83,314.82c28.22,16.29,56.43,32.58,84.64,48.87"/>
          <path class="cls-3" d="M18.53,258.02c1.76,1.02,3.52,2.04,5.29,3.06"/>
          <path class="cls-3" d="M18.53,251.91v6.11"/>
          <path class="cls-3" d="M23.82,254.97c-1.77-1.02-3.53-2.04-5.29-3.06"/>
          <path class="cls-3" d="M27.66,258.86l-3.84,2.22"/>
          <path class="cls-3" d="M441.43,13.86C302.23,94.23,163.02,174.6,23.82,254.97"/>
          <path class="cls-3" d="M36.8,262.47v6.1"/>
          <path class="cls-3" d="M42.09,265.52c-1.76-1.02-3.53-2.04-5.29-3.05"/>
          <path class="cls-3" d="M106.05,363.69v-49.03"/>
          <path class="cls-3" d="M106.05,424.93v-49.03"/>
          <path class="cls-3" d="M111.34,366.74v-55.13"/>
          <path class="cls-3" d="M103.4,353c-.88.51-1.76,1.02-2.64,1.52h0c-1.76,1.02-3.53,2.04-5.29,3.06"/>
          <path class="cls-3" d="M507.8,119.52c-.88.51-1.77,1.02-2.65,1.53"/>
          <path class="cls-3" d="M301.63,250.77c-61.66,35.6-123.33,71.21-185,106.81"/>
          <path class="cls-3" d="M498.39,131.06l-85.74,49.5"/>
          <path class="cls-3" d="M217.07,250.57v-6.11"/>
          <path class="cls-3" d="M211.78,253.62c1.74-1.01,3.47-2.01,5.22-3.01.02,0,.05-.03.07-.04"/>
          <path class="cls-3" d="M306.92,315.06v-122.48"/>
          <path class="cls-3" d="M23.82,261.08l3.84,2.22"/>
          <path class="cls-3" d="M14.68,255.8c1.28.74,2.56,1.48,3.85,2.22"/>
          <path class="cls-3" d="M417.94,134.59v-6.1h0"/>
          <path class="cls-3" d="M412.65,137.65c1.74-1.01,3.48-2.01,5.22-3.02.02-.01.05-.03.07-.04"/>
          <path class="cls-3" d="M412.65,131.54v6.11"/>
          <path class="cls-3" d="M407.36,134.59h.01l5.28,3.06"/>
          <path class="cls-3" d="M95.47,356.86c-27.81-32.16-55.61-64.31-83.42-96.47"/>
          <path class="cls-3" d="M432.3,13.02v-4.44"/>
          <path class="cls-3" d="M116.63,351.47c1.37-.79,2.75-1.58,4.12-2.38"/>
          <path class="cls-3" d="M116.63,337.91c20.97-23.93,41.93-47.85,62.9-71.78"/>
          <path class="cls-3" d="M502.51,177.71v-42.92"/>
          <path class="cls-3" d="M36.8,264.13c-1.28.74-2.56,1.48-3.85,2.22"/>
          <path class="cls-3" d="M450.57,23.58h0v-4.45"/>
          <path class="cls-3" d="M322.79,224.99c24.58-28.05,49.16-56.1,73.74-84.14"/>
          <path class="cls-3" d="M407.36,183.62c-28.19,16.27-56.38,32.55-84.57,48.82"/>
          <path class="cls-3" d="M51.23,276.9c1.28.74,2.56,1.48,3.85,2.22"/>
          <path class="cls-3" d="M60.36,282.18c1.29.74,2.57,1.48,3.85,2.22"/>
          <path class="cls-3" d="M69.5,287.45c1.28.74,2.57,1.48,3.85,2.22"/>
          <path class="cls-3" d="M78.64,292.73c1.28.74,2.56,1.48,3.85,2.22"/>
          <path class="cls-3" d="M87.78,298l3.84,2.22"/>
          <path class="cls-3" d="M96.91,303.28c1.29.74,2.57,1.48,3.85,2.22"/>
          <path class="cls-3" d="M45.94,269.41c-1.28.74-2.57,1.48-3.85,2.22"/>
          <path class="cls-3" d="M322.79,215.9c19.21-21.92,38.41-43.83,57.61-65.74"/>
          <path class="cls-3" d="M32.95,266.35c1.29.74,2.57,1.48,3.85,2.22"/>
          <path class="cls-3" d="M206.49,299.59l-85.74,49.5"/>
          <path class="cls-3" d="M201.2,296.54c-23.21,13.4-46.41,26.79-69.61,40.19"/>
          <path class="cls-3" d="M206.49,250.57c1.76,1.01,3.52,2.03,5.29,3.05"/>
          <path class="cls-3" d="M441.43,18.3v-4.44"/>
          <path class="cls-3" d="M459.71,28.85v-4.44"/>
          <path class="cls-3" d="M5.54,250.53c1.29.74,2.57,1.48,3.85,2.22"/>
          <path class="cls-3" d="M487.55,131.21c-24.97,14.42-49.93,28.83-74.9,43.25"/>
          <path class="cls-3" d="M402.07,180.56c-23.2,13.4-46.41,26.8-69.61,40.19"/>
          <path class="cls-3" d="M55.08,274.68c-1.29.74-2.57,1.48-3.85,2.22"/>
          <path class="cls-3" d="M87.78,291.9c-1.77-1.02-3.53-2.04-5.29-3.06"/>
          <path class="cls-3" d="M317.5,296.74v-42.92"/>
          <path class="cls-3" d="M64.21,279.96c-1.28.74-2.56,1.48-3.85,2.22"/>
          <path class="cls-3" d="M477.98,39.4v-4.44"/>
          <path class="cls-3" d="M468.84,34.13h0v-4.45"/>
          <path class="cls-3" d="M55.08,279.12l5.28,3.06"/>
          <path class="cls-3" d="M477.98,34.96c-1.76-1.02-3.52-2.04-5.29-3.06"/>
          <path class="cls-3" d="M60.36,282.18v-6.11"/>
          <path class="cls-3" d="M45.94,273.85c1.76,1.02,3.52,2.03,5.29,3.05"/>
          <path class="cls-3" d="M468.84,29.68c-1.76-1.01-3.52-2.03-5.28-3.05"/>
          <path class="cls-3" d="M51.23,276.9v-6.11"/>
          <path class="cls-3" d="M78.64,286.62c-1.76-1.02-3.53-2.04-5.29-3.05"/>
          <path class="cls-3" d="M73.35,285.23c-1.28.74-2.57,1.48-3.85,2.22"/>
          <path class="cls-3" d="M487.12,44.68h0v-4.45"/>
          <path class="cls-3" d="M73.35,289.67c1.76,1.02,3.53,2.04,5.29,3.06"/>
          <path class="cls-3" d="M496.26,45.51c-1.77-1.02-3.53-2.04-5.29-3.06"/>
          <path class="cls-3" d="M78.64,292.73v-6.11"/>
          <path class="cls-3" d="M64.21,284.4c1.77,1.02,3.53,2.04,5.29,3.05"/>
          <path class="cls-3" d="M487.12,40.23c-1.76-1.01-3.53-2.03-5.29-3.05"/>
          <path class="cls-3" d="M69.5,287.45v-6.1"/>
          <path class="cls-3" d="M423.16,7.75V3.31"/>
          <path class="cls-3" d="M9.39,252.75c1.76,1.02,3.53,2.03,5.29,3.05"/>
          <path class="cls-3" d="M432.3,8.58c-1.77-1.02-3.53-2.03-5.29-3.05"/>
          <path class="cls-3" d="M14.68,255.8v-6.11"/>
          <path class="cls-3" d="M.25,247.47c1.77,1.02,3.53,2.04,5.29,3.06"/>
          <path class="cls-3" d="M.25,241.36v6.11"/>
          <path class="cls-3" d="M5.54,244.42c-1.76-1.02-3.52-2.04-5.29-3.06"/>
          <path class="cls-3" d="M417.87.25C278.66,80.62,139.46,160.99.25,241.36"/>
          <path class="cls-3" d="M423.16,3.31c-1.76-1.02-3.53-2.04-5.29-3.06"/>
          <path class="cls-3" d="M5.54,250.53v-6.11"/>
          <path class="cls-3" d="M206.49,251.26v-.69"/>
          <path class="cls-3" d="M103.4,353c.89-1.01,1.77-2.01,2.65-3.02"/>
          <path class="cls-3" d="M103.4,353c.89.51,1.77,1.02,2.65,1.53"/>
          <path class="cls-3" d="M507.8,192.98c1.76,1.02,3.52,2.04,5.29,3.06"/>
          <path class="cls-3" d="M513.09,196.04c1.76-1.02,3.52-2.04,5.29-3.06"/>
          <path class="cls-3" d="M497.22,186.87c1.76,1.02,3.52,2.04,5.29,3.06"/>
          <path class="cls-3" d="M497.22,186.87v-49.02"/>
          <path class="cls-3" d="M26.7,373.01v-42.92"/>
          <path class="cls-3" d="M21.41,376.07c1.77-1.02,3.53-2.04,5.29-3.06"/>
          <path class="cls-3" d="M16.12,373.01c1.77,1.02,3.53,2.04,5.29,3.06"/>
          <path class="cls-3" d="M312.21,324.23v-12.22"/>
          <path class="cls-3" d="M91.62,295.78l-3.84,2.22"/>
          <path class="cls-3" d="M505.39,55.23v-4.45"/>
          <path class="cls-3" d="M106.05,302.45c-1.76-1.02-3.53-2.04-5.29-3.06"/>
          <path class="cls-3" d="M514.53,60.5v-4.44"/>
          <path class="cls-3" d="M100.76,305.5c1.76,1.02,3.53,2.04,5.29,3.05"/>
          <path class="cls-3" d="M523.67,61.33c-1.77-1.01-3.53-2.03-5.29-3.05"/>
          <path class="cls-3" d="M106.05,308.55v-6.1"/>
          <path class="cls-3" d="M523.67,67.44v-6.11"/>
          <path class="cls-3" d="M91.62,300.22c1.77,1.02,3.53,2.04,5.29,3.06"/>
          <path class="cls-3" d="M514.53,56.06c-1.76-1.02-3.53-2.04-5.29-3.05"/>
          <path class="cls-3" d="M96.91,303.28v-6.11"/>
          <path class="cls-3" d="M82.49,294.95c1.76,1.02,3.52,2.04,5.29,3.05"/>
          <path class="cls-3" d="M505.39,50.78c-1.76-1.01-3.52-2.03-5.29-3.05"/>
          <path class="cls-3" d="M87.78,298v-6.1"/>
          <path class="cls-3" d="M306.92,321.17c1.77,1.02,3.53,2.04,5.29,3.06"/>
          <path class="cls-3" d="M306.92,321.17v-6.11"/>
          <path class="cls-3" d="M317.5,296.74c-1.76-1.02-3.52-2.04-5.29-3.05"/>
          <path class="cls-3" d="M312.21,299.79c1.77-1.01,3.53-2.03,5.29-3.05"/>
          <path class="cls-3" d="M312.21,324.23c1.77-1.02,3.53-2.04,5.29-3.06"/>
          <path class="cls-3" d="M505.15,121.05c.88.51,1.77,1.02,2.65,1.53"/>
          <path class="cls-3" d="M27.66,263.3c1.77,1.02,3.53,2.03,5.29,3.05"/>
          <path class="cls-3" d="M450.57,19.13c-1.76-1.02-3.53-2.03-5.29-3.05"/>
          <path class="cls-3" d="M32.95,266.35v-6.11"/>
          <path class="cls-3" d="M317.5,308.96c1.77-1.02,3.53-2.04,5.29-3.06"/>
          <path class="cls-3" d="M201.2,296.54c1.76,1.02,3.52,2.03,5.29,3.05"/>
          <path class="cls-3" d="M201.2,296.54v-39.24h0"/>
          <path class="cls-3" d="M206.49,299.59c1.76-1.02,3.52-2.03,5.29-3.05"/>
          <path class="cls-3" d="M402.07,180.56c1.76,1.02,3.53,2.04,5.29,3.06"/>
          <path class="cls-3" d="M402.07,180.56v-39.24"/>
          <path class="cls-3" d="M407.36,183.62c1.76-1.02,3.53-2.04,5.29-3.06"/>
          <path class="cls-3" d="M10.83,314.82c-1.76-1.01-3.52-2.03-5.29-3.05"/>
          <path class="cls-3" d="M459.71,24.41C320.5,104.78,181.3,185.15,42.09,265.52"/>
          <path class="cls-3" d="M301.63,240.19c-26.34.35-52.68.71-79.02,1.07"/>
          <path class="cls-3" d="M211.78,247.51v6.11"/>
          <path class="cls-3" d="M42.09,271.63c1.28.74,2.57,1.48,3.85,2.22"/>
          <path class="cls-3" d="M100.76,366.74c1.76,1.02,3.53,2.04,5.29,3.06"/>
          <path class="cls-3" d="M106.05,363.69c1.76,1.02,3.53,2.03,5.29,3.05"/>
          <path class="cls-3" d="M407.36,134.59h0v.69"/>
          <path class="cls-3" d="M297.51,247.04c-28.58,16.5-57.16,33-85.73,49.5"/>
          <path class="cls-3" d="M10.83,302.61v-36.8"/>
          <path class="cls-3" d="M5.54,305.66v-45.96"/>
          <path class="cls-3" d="M286.68,247.19c-24.97,14.41-49.94,28.83-74.9,43.24"/>
          <path class="cls-3" d="M.25,308.71c1.77,1.02,3.53,2.04,5.29,3.06"/>
          <path class="cls-3" d="M111.34,366.74c-1.76,1.02-3.53,2.04-5.29,3.06"/>
          <path class="cls-3" d="M5.54,305.66c-1.76,1.02-3.52,2.04-5.29,3.05"/>
          <path class="cls-3" d="M111.34,372.85v-6.11"/>
          <path class="cls-3" d="M106.05,375.9c1.76-1.01,3.53-2.03,5.29-3.05"/>
          <path class="cls-3" d="M106.05,369.8v6.1"/>
          <path class="cls-3" d="M.25,308.71v6.11"/>
          <path class="cls-3" d="M317.5,192.58v-6.1h0"/>
          <path class="cls-3" d="M312.21,195.63c1.77-1.01,3.53-2.03,5.29-3.05"/>
          <path class="cls-3" d="M441.43,13.86c-1.76-1.02-3.52-2.04-5.29-3.06"/>
          <path class="cls-3" d="M23.82,261.08v-6.11"/>
          <path class="cls-3" d="M36.8,268.57c1.76,1.02,3.53,2.04,5.29,3.06"/>
          <path class="cls-3" d="M459.71,24.41c-1.77-1.02-3.53-2.04-5.29-3.06"/>
          <path class="cls-3" d="M42.09,271.63v-6.11"/>
          <path class="cls-3" d="M297.51,247.04c1.38-.79,2.75-1.59,4.12-2.38"/>
          <path class="cls-3" d="M111.34,427.98v-55.13"/>
          <path class="cls-3" d="M12.05,260.39c-3.93-2.27-7.86-4.54-11.8-6.81"/>
          <path class="cls-3" d="M16.12,385.23v-12.22"/>
          <path class="cls-3" d="M100.76,353.8v-42.19"/>
          <path class="cls-3" d="M95.47,347.68v-39.13"/>
          <path class="cls-3" d="M10.83,357.74v-36.81"/>
          <path class="cls-3" d="M100.76,409.66v-36.81"/>
          <path class="cls-3" d="M106.05,357.58c-1.76,1.02-3.53,2.04-5.29,3.05"/>
          <path class="cls-3" d="M5.54,366.9v-49.02"/>
          <path class="cls-3" d="M5.54,366.9c1.77,1.02,3.53,2.04,5.29,3.06"/>
          <path class="cls-3" d="M523.67,67.44c-1.77,1.02-3.53,2.04-5.29,3.06"/>
          <path class="cls-3" d="M95.47,418.82c1.76,1.02,3.53,2.04,5.29,3.06"/>
          <path class="cls-3" d="M95.47,418.82v-49.02"/>
          <path class="cls-3" d="M106.05,363.69c-1.76,1.02-3.53,2.03-5.29,3.05"/>
          <path class="cls-3" d="M106.05,424.93c1.76,1.02,3.53,2.04,5.29,3.05"/>
          <path class="cls-3" d="M111.34,427.98c1.76-1.01,3.53-2.03,5.29-3.05"/>
          <path class="cls-3" d="M95.47,363.69c1.76,1.02,3.53,2.03,5.29,3.05"/>
          <path class="cls-3" d="M95.47,357.58v6.11"/>
          <path class="cls-3" d="M100.76,360.63c-1.76-1.01-3.53-2.03-5.29-3.05"/>
          <path class="cls-3" d="M100.76,366.74v-6.11"/>
          <path class="cls-3" d="M317.5,253.82v-6.11"/>
          <path class="cls-3" d="M217.07,244.46s-.05.03-.07.04"/>
          <path class="cls-3" d="M301.63,312.01c1.77,1.02,3.53,2.04,5.29,3.05"/>
          <path class="cls-3" d="M301.63,312.01v-61.24"/>
          <path class="cls-3" d="M306.92,192.58c1.77-1.02,3.53-2.04,5.29-3.05"/>
          <path class="cls-3" d="M306.92,315.06c1.77-1.01,3.53-2.03,5.29-3.05"/>
          <path class="cls-3" d="M111.34,311.61v-6.11"/>
          <path class="cls-3" d="M106.05,314.66c1.76-1.02,3.53-2.03,5.29-3.05"/>
          <path class="cls-3" d="M106.05,308.55v6.11"/>
          <path class="cls-3" d="M.25,247.47v6.11"/>
          <path class="cls-3" d="M100.76,353.8c-1.76,1.02-3.53,2.04-5.29,3.06"/>
          <path class="cls-3" d="M95.47,356.86v.72"/>
          <path class="cls-3" d="M10.83,357.74c1.77,1.02,3.53,2.04,5.29,3.05"/>
          <path class="cls-3" d="M10.83,382.17c1.77,1.02,3.53,2.04,5.29,3.06"/>
          <path class="cls-3" d="M16.12,354.69c-1.76,1.01-3.52,2.03-5.29,3.05"/>
          <path class="cls-3" d="M21.41,382.17v-6.1"/>
          <path class="cls-3" d="M16.12,385.23c1.77-1.02,3.53-2.04,5.29-3.06"/>
          <path class="cls-3" d="M507.8,205.2v-12.22"/>
          <path class="cls-3" d="M502.51,177.71c1.76,1.02,3.52,2.04,5.29,3.06"/>
          <path class="cls-3" d="M502.51,202.14c1.76,1.02,3.52,2.04,5.29,3.06"/>
          <path class="cls-3" d="M507.8,174.66c-1.77,1.02-3.53,2.03-5.29,3.05"/>
          <path class="cls-3" d="M513.09,202.14v-6.1"/>
          <path class="cls-3" d="M507.8,205.2c1.76-1.02,3.52-2.04,5.29-3.06"/>
          <path class="cls-3" d="M106.05,437.15v-12.22"/>
          <path class="cls-3" d="M100.76,409.66c1.76,1.02,3.53,2.04,5.29,3.05"/>
          <path class="cls-3" d="M100.76,434.09c1.76,1.02,3.53,2.04,5.29,3.06"/>
          <path class="cls-3" d="M106.05,406.61c-1.76,1.01-3.53,2.03-5.29,3.05"/>
          <path class="cls-3" d="M111.34,434.09v-6.11"/>
          <path class="cls-3" d="M106.05,437.15c1.76-1.02,3.53-2.04,5.29-3.06"/>
          <line class="cls-3" x1="317.5" y1="247.71" x2="317.5" y2="233.54"/>
          <line class="cls-3" x1="317.5" y1="233.54" x2="312.27" y2="236.56"/>
          <line class="cls-3" x1="317.5" y1="233.54" x2="312.21" y2="230.49"/>
          <path class="cls-3" d="M217,263.14v-12.53"/>
          <path class="cls-3" d="M16.12,299.55c-1.76,1.02-3.52,2.04-5.29,3.06-1.76,1.01-3.53,2.03-5.29,3.05"/>
          <path class="cls-3" d="M16.12,305.66c-1.76,1.02-3.52,2.04-5.29,3.05"/>
          <path class="cls-3" d="M518.38,125.63c1.76,1.02,3.52,2.04,5.29,3.06"/>
          <path class="cls-3" d="M259.18,220.15c9.86,5.69,19.73,11.39,29.59,17.08"/>
          <path class="cls-3" d="M497.22,113.4c-5.9-6.83-11.8-13.65-17.7-20.47"/>
          <path class="cls-3" d="M470.63,98.06h.01c8.86,5.12,17.71,10.24,26.58,15.35"/>
          <path class="cls-3" d="M465.34,101.12c10.63,6.13,21.25,12.27,31.88,18.4"/>
          <path class="cls-3" d="M460.05,104.17h.01c9.87,5.7,19.72,11.39,29.59,17.09"/>
          <path class="cls-3" d="M264.47,217.09c11.54,6.67,23.09,13.34,34.64,20"/>
          <path class="cls-3" d="M253.89,223.2c8.18,4.73,16.36,9.45,24.55,14.17"/>
          <path class="cls-3" d="M497.22,97.39c-2.82-3.26-5.65-6.52-8.47-9.79"/>
          <path class="cls-3" d="M497.22,106.56c-4.59-5.3-9.17-10.6-13.76-15.9"/>
          <path class="cls-3" d="M412.65,150.26c1.74,1.01,3.48,2.01,5.22,3.02"/>
          <path class="cls-3" d="M211.78,266.16c1.74-1.01,3.48-2.01,5.22-3.02"/>
          <path class="cls-3" d="M35.58,294.43c-2.96,1.71-5.92,3.41-8.88,5.12"/>
          <path class="cls-3" d="M5.54,311.77v-6.11"/>
          <path class="cls-3" d="M423.16,144.12v-12.03h0"/>
          <path class="cls-3" d="M53.29,284.2c-2.83,1.63-5.65,3.27-8.48,4.9"/>
          <path class="cls-3" d="M58.58,287.26c-3.42,1.97-6.83,3.94-10.25,5.91"/>
          <path class="cls-3" d="M39.1,298.5c-4.13,2.39-8.26,4.77-12.4,7.16"/>
          <path class="cls-3" d="M48,281.15c-2.24,1.29-4.48,2.58-6.71,3.88"/>
          <path class="cls-3" d="M32.05,290.35c-1.78,1.03-3.56,2.06-5.35,3.09"/>
          <path class="cls-3" d="M428.45,141.06v-9.04h0"/>
          <path class="cls-3" d="M16.12,311.77c-1.76,1.02-3.52,2.03-5.29,3.05"/>
          <path class="cls-3" d="M10.83,308.71v6.11"/>
          <path class="cls-3" d="M5.54,305.66c1.77,1.02,3.53,2.04,5.29,3.05"/>
          <path class="cls-3" d="M217,250.93c1.65-.96,3.29-1.91,4.95-2.87h.01"/>
          <path class="cls-3" d="M423.16,144.12c1.76-1.02,3.53-2.04,5.29-3.06"/>
          <path class="cls-3" d="M417.87,141.06v-6.43"/>
          <path class="cls-3" d="M417.87,141.06c1.76,1.02,3.53,2.04,5.29,3.06"/>
          <path class="cls-3" d="M523.67,73.55v-6.11"/>
          <path class="cls-3" d="M518.38,76.61c1.76-1.02,3.52-2.04,5.29-3.06"/>
          <path class="cls-3" d="M523.67,128.69c-1.77,1.01-3.53,2.03-5.29,3.05"/>
          <path class="cls-3" d="M523.67,134.79v-6.1"/>
          <path class="cls-3" d="M518.38,137.85c1.76-1.02,3.52-2.04,5.29-3.06"/>
          <path class="cls-3" d="M317.5,247.71c-1.76,1.02-3.52,2.04-5.29,3.06"/>
          <path class="cls-3" d="M312.21,256.88c1.77-1.02,3.53-2.04,5.29-3.06"/>
          <path class="cls-3" d="M417.87,153.28v-12.22"/>
          <path class="cls-3" d="M423.16,150.22v-6.1"/>
          <path class="cls-3" d="M417.87,153.28c1.76-1.02,3.53-2.04,5.29-3.06"/>
        </g>
      </g>
    </g>
  </g>
</svg>