<?xml version="1.0" encoding="UTF-8"?>
<svg id="Capa_2" data-name="Capa 2" xmlns="http://www.w3.org/2000/svg" viewBox="0 0 202.11 500.38">
  <defs>
    <style>
      .cls-1 {
        fill: #cecece;
      }

      .cls-2 {
        fill: #f4c5a2;
      }

      .cls-3 {
        fill: #d3b19b;
      }

      .cls-4 {
        fill: #c96;
      }

      .cls-5 {
        fill: none;
        stroke: #000;
        stroke-linecap: square;
        stroke-miterlimit: 10;
        stroke-width: .5px;
      }

      .cls-6 {
        fill: #f4e5dc;
      }

      .cls-7 {
        fill: #aa672b;
      }
    </style>
  </defs>
  <g id="Ilustración_de_conjunto_de_iconos" data-name="Ilustración de conjunto de iconos">
    <g>
      <g>
        <polygon class="cls-3" points="145.98 110.29 147.21 115.22 149.67 125.47 150.9 130.81 151.18 132.47 151.52 134.53 151.72 135.73 152.95 140.24 153.36 142.29 153.77 144.34 126.28 128.34 127.11 124.24 127.93 120.14 129.16 116.45 129.98 112.75 130.8 109.47 131.62 106.6 132.85 104.14 133.67 101.68 134.35 99.98 134.49 100.04 144.79 105.92 145.98 110.29"/>
        <polygon class="cls-3" points="201.36 155.01 201.77 159.11 163.34 137.03 164.03 134.5 164.85 129.16 165.67 123.42 166.9 117.68 168.95 105.37 170.18 99.63 171.41 93.88 172.64 88.55 173.87 83.63 175.1 79.52 175.92 77.88 176.33 76.24 176.65 75.77 176.74 75.83 187.41 81.99 188.64 85.27 189.87 89.37 191.1 93.88 192.33 98.4 193.56 103.32 194.38 108.65 196.44 119.32 198.08 129.99 199.72 140.65 200.13 145.57 200.95 150.5 201.36 155.01"/>
        <polygon class="cls-6" points="63.01 8.08 63.52 7.32 64.34 6.09 65.57 5.68 66.39 5.68 67.21 6.09 182.08 72.14 181.26 71.73 180.44 71.73 180.03 71.73 179.21 72.14 178.38 72.96 177.97 73.78 177.66 74.25 177.15 75.01 176.65 75.77 176.33 76.24 175.92 77.88 175.1 79.52 173.87 83.63 172.64 88.55 171.41 93.88 170.18 99.63 168.95 105.37 166.9 117.68 165.67 123.42 164.85 129.16 163.62 134.5 162.8 139.01 151.31 132.45 151.18 132.47 150.9 130.81 149.67 125.47 147.21 115.22 145.98 110.29 144.79 105.92 145.98 106.6 148.44 104.14 148.44 102.91 148.03 102.5 137.77 96.34 138.59 96.34 139.41 96.34 109.01 78.79 109.06 78.7 109.06 49.58 106.23 47.93 99.21 43.83 97.57 45.06 97.57 47.52 97.21 47.52 95.11 46.29 93.06 47.52 93.06 69.59 52.9 46.42 54.49 38.09 56.13 29.88 57.37 24.96 57.78 23.32 58.19 22.09 59.01 18.81 59.22 17.97 59.83 15.93 61.06 12.24 61.47 10.6 62.29 9.37 62.23 9.34 62.7 8.55 63.01 8.08"/>
        <polygon class="cls-6" points="102.9 75.27 109.01 78.79 139.41 96.34 138.59 95.93 137.36 96.34 136.8 96.9 136.54 97.16 135.72 97.99 134.83 99.17 134.49 99.63 134.35 99.98 133.67 101.68 132.85 104.14 131.62 106.6 130.8 109.47 129.98 112.75 128.75 116.45 127.93 120.14 127.11 124.24 126.28 128.34 125.97 130.05 124.64 137.37 123 146.81 121.36 156.65 118.49 175.93 117.67 185.37 116.44 193.99 116.03 198.09 115.62 202.19 115.21 205.88 115.21 209.16 102.95 202.11 .34 143.11 .75 139.83 1.16 136.14 1.57 132.04 1.98 127.93 2.39 123.42 3.08 116.89 3.51 113.76 4.45 107.83 4.69 105.4 6.91 90.19 8 81.85 8.29 79.86 9.58 72.5 10.37 68.7 11.83 62.29 12.65 58.19 13.47 54.09 14.02 51.61 15.11 47.52 15.93 44.65 16.09 44.08 16.34 43.42 16.96 41.27 17.57 39.73 18.39 37.27 19.21 35.63 20.03 33.99 19.9 33.91 20.03 33.58 20.44 32.75 20.85 31.93 22.09 30.7 22.91 30.29 23.73 29.88 24.96 30.29 52.9 46.42 93.06 69.59 102.9 75.27"/>
        <polygon class="cls-1" points="165.26 146.4 165.26 147.22 164.85 147.22 164.44 146.4 164.85 145.99 165.26 146.4"/>
        <polygon class="cls-1" points="164.44 145.57 164.85 145.99 164.44 146.4 164.03 145.99 163.62 145.57 164.03 145.57 164.44 145.57"/>
        <polygon class="cls-1" points="164.85 147.22 164.85 147.63 164.44 148.04 164.03 148.04 163.62 147.63 163.21 147.63 162.8 146.4 163.21 145.57 163.62 145.57 164.03 145.99 164.44 146.4 164.85 147.22"/>
        <polygon class="cls-1" points="156.23 153.37 156.23 153.78 155.41 155.42 155 155.42 154.59 155.01 154.18 154.6 155 152.96 156.23 152.96 156.23 153.37"/>
        <polygon class="cls-7" points="190.69 78.29 190.69 79.11 190.28 80.75 187.41 81.99 187.82 79.93 188.23 79.52 188.64 78.7 189.05 78.29 189.46 77.88 190.28 77.88 190.69 78.29"/>
        <polygon class="cls-4" points="189.46 77.88 189.05 78.29 188.64 78.7 188.23 79.52 187.82 79.93 177.66 74.25 177.97 73.78 178.38 72.96 179.21 72.14 179.62 72.14 189.46 77.88"/>
        <polygon class="cls-4" points="187.82 79.93 187.41 81.99 176.74 75.83 176.65 75.77 177.15 75.01 177.66 74.25 187.82 79.93"/>
        <polygon class="cls-7" points="177.97 145.99 177.97 155.01 176.33 155.83 176.33 146.81 177.97 145.99"/>
        <polygon class="cls-2" points="177.97 145.99 176.33 146.81 162.8 139.01 163.21 137.51 163.21 137.78 177.97 145.99"/>
        <polygon class="cls-7" points="176.33 146.81 176.33 155.83 174.69 156.65 174.69 147.63 176.33 146.81"/>
        <polygon class="cls-2" points="176.33 146.81 174.69 147.63 151.72 134.5 151.52 134.53 151.18 132.47 151.31 132.45 176.33 146.81"/>
        <path class="cls-4" d="M174.69,147.63v9.02l-5.74-3.69v-1.64l-15.59-9.03-.41-2.05-1.23-4.51-.2-1.2.2-.03,22.97,13.13ZM165.26,147.63v-1.23l-.41-.41-.41-.42h-1.23l-.41.83.41,1.23h.41l.41.41h.82v-.41h.41Z"/>
        <polygon class="cls-7" points="168.95 152.96 168.95 159.93 167.31 160.75 167.31 152.14 168.95 151.32 168.95 152.96"/>
        <polygon class="cls-2" points="168.95 151.32 167.31 152.14 153.77 144.34 153.36 142.29 168.95 151.32"/>
        <polygon class="cls-7" points="167.31 160.75 167.31 161.16 165.67 161.99 165.67 152.96 167.31 152.14 167.31 160.75"/>
        <polygon class="cls-2" points="167.31 152.14 165.67 152.96 125.97 130.05 126.28 128.34 153.77 144.34 167.31 152.14"/>
        <path class="cls-4" d="M165.67,152.96v9.03l-41.03-24.21-1.64,9.44-1.64,9.84-2.87,19.28-.82,9.03.82-9.44,2.87-19.28,1.64-9.84,1.64-9.44,1.33-7.32,39.7,22.91ZM156.23,153.78v-1.64l-.41-.82-.41-.41-.41-.41h-.82v-.41h-2.05v.41h-.41l.41.82v.41h2.05l-.82.41v.41l.41.82h.41l.35-.18-.35,1.41v.41l.41.41h.82l.82-1.64Z"/>
        <polygon class="cls-2" points="158.69 477.06 164.85 487.73 158.69 491.01 152.56 480.33 158.69 477.06"/>
        <polygon class="cls-2" points="125.96 433.93 146.72 470.14 152.56 480.33 158.69 491.01 152.54 494.7 102.9 408.14 109.06 404.45 114.35 413.68 113.98 413.47 123 429.06 123.13 428.98 125.96 433.93"/>
        <polygon class="cls-7" points="138.11 427.46 131.86 423.83 132.03 423.73 114.36 413.69 114.35 413.68 109.06 404.45 109.06 400.34 158.69 429.47 150.08 434.39 143.93 430.7 143.82 430.76 138.11 427.46"/>
        <polygon class="cls-2" points="158.69 477.06 152.56 480.33 146.72 470.14 146.8 470.09 158.69 477.06"/>
        <polygon class="cls-1" points="156.23 152.14 156.23 152.96 155 152.96 155 152.55 155 152.14 154.59 151.73 154.18 151.73 154.18 151.32 155 150.91 155 150.5 155.41 150.91 155.82 151.32 156.23 152.14"/>
        <polygon class="cls-1" points="155 152.55 155 152.96 154.59 152.96 154.53 153.19 154.18 153.37 154.18 152.96 153.77 152.14 153.36 152.14 154.18 151.73 154.59 151.73 155 152.14 155 152.55"/>
        <polygon class="cls-1" points="155 150.5 155 150.91 154.18 151.32 154.18 151.73 152.54 151.32 152.13 151.32 152.13 150.5 152.13 150.09 152.54 150.09 154.18 150.09 154.18 150.5 155 150.5"/>
        <polygon class="cls-4" points="115.58 440.16 112.57 434.9 112.75 434.8 109.06 428.65 109.06 428.76 102.9 417.98 102.9 413.88 102.9 408.14 152.54 494.7 143.93 489.78 138.18 479.11 137.66 478.8 131.6 468.2 125.54 457.59 125.87 457.78 121.03 449.71 115.58 440.16"/>
        <polygon class="cls-7" points="148.44 102.91 148.44 104.14 145.98 106.6 145.57 105.37 145.57 104.55 145.57 103.73 145.98 103.32 146.8 102.5 147.21 102.09 148.03 102.5 148.44 102.91"/>
        <polygon class="cls-4" points="148.03 102.5 147.21 102.09 146.8 102.5 136.8 96.9 137.36 96.34 137.77 96.34 148.03 102.5"/>
        <polygon class="cls-4" points="146.8 102.5 145.98 103.32 145.57 103.73 145.57 104.55 145.57 105.37 134.9 99.22 134.83 99.17 135.72 97.99 136.54 97.16 136.8 96.9 146.8 102.5"/>
        <polygon class="cls-7" points="129.16 439.32 146.8 470.09 146.72 470.14 125.96 433.93 138.11 427.46 143.82 430.76 129.16 439.32"/>
        <polygon class="cls-4" points="144.79 105.92 134.49 100.04 134.35 99.98 134.49 99.63 134.83 99.17 134.9 99.22 145.57 105.37 145.98 106.6 144.79 105.92"/>
        <polygon class="cls-2" points="131.86 423.83 138.11 427.46 125.96 433.93 123.13 428.98 131.86 423.83"/>
        <polygon class="cls-4" points="137.66 478.8 115.21 465.57 115.21 458.6 131.6 468.2 137.66 478.8"/>
        <polygon class="cls-2" points="125.54 457.59 131.6 468.2 115.21 458.6 109.06 455.32 109.06 448.34 125.53 457.59 125.54 457.59"/>
        <polygon class="cls-7" points="111.52 449.57 125.53 457.59 109.06 448.34 109.06 443.83 115.58 440.16 121.03 449.71 118.49 445.47 111.52 449.57"/>
        <polygon class="cls-2" points="115.58 440.16 109.06 443.83 109.06 436.86 112.57 434.9 115.58 440.16"/>
        <polygon class="cls-7" points="115.21 458.6 115.21 465.57 55.72 500.04 61.47 489.78 115.21 458.6"/>
        <polygon class="cls-7" points="115.21 209.16 109.06 205.88 109.06 400.34 109.06 404.45 102.9 408.14 102.9 404.04 102.9 202.19 102.95 202.11 115.21 209.16"/>
        <polygon class="cls-2" points="115.21 458.6 61.47 489.78 55.72 486.09 64.38 481.1 64.34 481.16 66.84 479.68 96.81 462.39 103.02 458.81 109.06 455.32 115.21 458.6"/>
        <polygon class="cls-7" points="109.06 448.34 109.06 455.32 103.02 458.81 102.9 458.6 102.9 417.98 109.06 428.76 109.06 436.86 109.06 443.83 109.06 448.34"/>
        <polygon class="cls-7" points="109.06 49.58 109.06 78.7 109.01 78.79 102.9 75.27 102.9 53.27 104.95 52.04 104.95 55.32 104.95 56.14 104.95 59.01 107 57.37 107 50.81 109.06 49.58"/>
        <polygon class="cls-2" points="106.23 47.93 109.06 49.58 107 50.81 104.54 49.16 104.13 48.34 102.9 47.52 102.08 46.7 100.44 46.29 99.62 46.29 97.57 45.06 99.21 43.83 106.23 47.93"/>
        <polygon class="cls-4" points="107 50.81 107 57.37 104.95 56.14 104.95 55.32 105.36 54.91 105.77 53.68 105.77 52.45 105.36 51.22 104.95 49.99 104.54 49.16 107 50.81"/>
        <polygon class="cls-2" points="107 57.37 104.95 59.01 104.95 56.14 107 57.37"/>
        <polygon class="cls-1" points="105.77 52.45 105.77 53.68 105.36 54.91 104.95 55.32 105.36 54.5 105.36 53.68 105.36 52.86 104.95 51.63 104.13 49.58 102.9 47.93 101.67 47.11 100.44 46.29 102.08 46.7 102.9 47.52 104.13 48.34 104.54 49.16 104.95 49.99 105.36 51.22 105.77 52.45"/>
        <polygon class="cls-1" points="98.8 47.11 98.39 47.11 99.21 46.7 99.62 46.29 100.44 46.29 101.67 47.11 102.9 47.93 104.13 49.58 104.95 51.63 105.36 52.86 105.36 53.68 105.36 54.5 104.95 55.32 104.95 52.04 102.34 50.52 101.67 49.16 100.85 48.34 100.03 47.93 98.8 47.11"/>
        <polygon class="cls-2" points="98.47 48.26 102.34 50.52 104.95 52.04 102.9 53.27 93.06 47.52 95.11 46.29 97.21 47.52 97.7 47.8 98.47 48.26"/>
        <polygon class="cls-2" points="93.06 452.95 102.9 458.6 103.02 458.81 96.81 462.39 96.75 462.29 80.51 452.95 83.62 447.52 86.9 449.57 87.04 449.49 93.06 452.95"/>
        <polygon class="cls-4" points="102.95 202.11 102.9 202.19 102.9 404.04 96.75 400.34 93.06 406.76 93.06 402.39 93.06 196.86 .34 143.11 102.95 202.11"/>
        <polygon class="cls-4" points="102.9 417.98 102.9 458.6 93.06 452.95 93.06 445.88 93.06 431.05 102.9 413.88 102.9 417.98"/>
        <polygon class="cls-7" points="80.51 452.95 77.5 458.2 77.47 458.19 64.38 481.1 55.72 486.09 102.9 404.04 102.9 408.14 102.9 413.88 93.06 431.05 93.06 430.7 83.62 447.52 80.51 452.95"/>
        <path class="cls-4" d="M102.9,53.27v22l-9.84-5.68v-22.07l9.84,5.75ZM98.8,54.09v-.41l-.41-.82-.82-.82-.41.41-.41.41.41,1.23,1.23.41.41-.41Z"/>
        <polygon class="cls-2" points="93.06 406.76 96.75 400.34 102.9 404.04 55.72 486.09 49.66 496.6 43.42 493.06 67.21 452.04 67.06 451.96 70.08 446.7 82.72 424.73 88.13 415.52 87.96 415.62 93.06 406.76"/>
        <polygon class="cls-1" points="102.34 50.52 98.47 48.26 98.8 47.93 99.21 47.93 100.44 48.34 101.67 49.16 102.34 50.52"/>
        <polygon class="cls-1" points="101.67 49.16 100.44 48.34 99.21 47.93 98.8 47.93 98.47 48.26 97.7 47.8 97.98 47.52 98.8 47.52 100.03 47.93 101.67 49.16"/>
        <polygon class="cls-4" points="99.62 46.29 99.21 46.29 99.21 46.7 98.39 47.11 97.98 47.11 97.57 47.52 97.57 45.06 99.62 46.29"/>
        <polygon class="cls-1" points="98.72 53.84 98.39 54.5 97.16 54.09 96.75 52.86 97.16 52.45 98.39 52.86 98.72 53.84"/>
        <polygon class="cls-4" points="96.75 462.29 96.81 462.39 66.84 479.68 90.59 465.57 77.5 458.2 80.51 452.95 96.75 462.29"/>
        <polygon class="cls-2" points="93.06 445.88 93.06 452.95 87.04 449.49 93.06 445.88"/>
        <polygon class="cls-4" points="93.06 402.39 93.06 406.76 87.96 415.62 58.19 432.75 72.95 441.37 49.57 427.83 93.06 402.39"/>
        <polygon class="cls-2" points="72.95 441.37 82.72 424.73 70.08 446.7 43.42 431.52 49.57 427.83 72.95 441.37"/>
        <polygon class="cls-4" points="70.08 446.7 67.06 451.96 37.26 434.8 43.42 431.52 70.08 446.7"/>
        <polygon class="cls-4" points="55.72 .34 56.13 .34 65.16 5.68 65.57 5.68 64.34 6.09 63.52 7.32 63.01 8.08 53.67 2.81 54.08 1.99 54.49 1.16 54.9 .75 55.72 .34"/>
        <polygon class="cls-4" points="63.01 8.08 62.7 8.55 62.23 9.34 53.67 4.45 53.67 2.81 63.01 8.08"/>
        <polygon class="cls-2" points="61.47 489.78 55.72 500.04 49.66 496.6 55.72 486.09 61.47 489.78"/>
        <polygon class="cls-4" points="22.91 30.29 22.09 30.7 12.65 25.37 13.47 24.96 13.88 24.96 22.91 30.29"/>
        <polygon class="cls-4" points="22.09 30.7 20.85 31.93 20.44 32.75 11.42 27.83 11.42 27.01 11.83 26.6 12.24 25.78 12.65 25.37 22.09 30.7"/>
        <polygon class="cls-4" points="20.44 32.75 20.03 33.58 19.9 33.91 11.83 29.06 11.42 27.83 20.44 32.75"/>
      </g>
      <g>
        <line class="cls-5" x1="111.52" y1="449.57" x2="125.53" y2="457.59"/>
        <polyline class="cls-5" points="125.87 457.78 121.03 449.71 118.49 445.47"/>
        <line class="cls-5" x1="112.75" y1="434.8" x2="109.06" y2="428.65"/>
        <line class="cls-5" x1="132.03" y1="423.73" x2="114.36" y2="413.69"/>
        <line class="cls-5" x1="113.98" y1="413.47" x2="123" y2="429.06"/>
        <polyline class="cls-5" points="72.95 441.37 82.72 424.73 88.13 415.52"/>
        <line class="cls-5" x1="58.19" y1="432.75" x2="72.95" y2="441.37"/>
        <polyline class="cls-5" points="93.06 430.7 83.62 447.52 86.9 449.57"/>
        <polyline class="cls-5" points="64.34 481.16 66.84 479.68 90.59 465.57"/>
        <line class="cls-5" x1="77.47" y1="458.19" x2="64.38" y2="481.1"/>
        <polyline class="cls-5" points=".34 143.11 .75 137.37 1.57 130.4 2.39 123.42 3.08 116.89 3.21 115.63 3.51 113.76 4.45 107.83 4.69 105.4 5.27 99.63 7.73 83.63 8 81.85 8.29 79.86 8.96 75.42 9.58 72.5 10.37 68.7 10.6 67.63 11.57 61.77 11.83 60.24 13.47 53.68 14.02 51.61 15.11 47.52 15.93 44.65 16.09 44.08 16.75 41.78 16.96 41.27 17.57 39.73 18.39 37.27 19.21 35.63 20.03 33.99"/>
        <line class="cls-5" x1="24.96" y1="30.29" x2="52.85" y2="46.29"/>
        <polyline class="cls-5" points="52.85 46.29 54.9 35.22 56.13 29.88 57.37 24.96 57.78 23.32 58.6 20.04 58.8 19.36 59.22 17.97 59.83 15.93 61.06 12.24 61.47 10.6 62.29 9.37"/>
        <line class="cls-5" x1="65.16" y1="5.68" x2="65.57" y2="5.68"/>
        <line class="cls-5" x1="184.13" y1="74.19" x2="190.28" y2="77.88"/>
        <line class="cls-5" x1="190.28" y1="80.75" x2="187.82" y2="81.99"/>
        <polyline class="cls-5" points="163.21 136.96 163.21 137.51 163.21 137.78"/>
        <polyline class="cls-5" points="124.64 137.78 123 147.22 121.36 157.06 118.49 176.34 117.67 185.37 116.44 194.4 116.03 198.5 115.62 202.19"/>
        <line class="cls-5" x1="93.06" y1="196.86" x2=".34" y2="143.11"/>
        <line class="cls-5" x1="37.26" y1="434.8" x2="93.06" y2="402.39"/>
        <polyline class="cls-5" points="55.72 500.04 49.66 496.6 43.42 493.06 67.21 452.04"/>
        <line class="cls-5" x1="143.93" y1="489.78" x2="138.18" y2="479.11"/>
        <line class="cls-5" x1="164.85" y1="487.73" x2="152.54" y2="494.7"/>
        <line class="cls-5" x1="129.16" y1="439.32" x2="146.8" y2="470.09"/>
        <line class="cls-5" x1="150.08" y1="434.39" x2="143.93" y2="430.7"/>
        <line class="cls-5" x1="115.21" y1="209.16" x2="109.06" y2="205.88"/>
        <polyline class="cls-5" points="102.49 50.81 102.34 50.52 101.67 49.16 100.44 48.34 99.21 47.93 98.8 47.93"/>
        <line class="cls-5" x1="56.13" y1=".34" x2="65.16" y2="5.68"/>
        <line class="cls-5" x1="187.82" y1="79.93" x2="187.41" y2="81.99"/>
        <polyline class="cls-5" points="187.82 79.93 177.66 74.25 177.56 74.19"/>
        <line class="cls-5" x1="179.62" y1="72.14" x2="189.46" y2="77.88"/>
        <polyline class="cls-5" points="129.98 112.75 128.75 116.45 127.93 120.14"/>
        <polyline class="cls-5" points="139.41 96.34 138.59 95.93 137.36 96.34"/>
        <polyline class="cls-5" points="141.46 98.4 140.64 97.16 139.41 96.34"/>
        <polyline class="cls-5" points="145.98 110.29 144.79 105.92 144.75 105.78"/>
        <polyline class="cls-5" points="153.77 144.34 153.36 142.29 152.95 140.24 151.72 135.73 151.52 134.53 151.18 132.47 150.9 130.81 149.67 125.47 147.21 115.22 145.98 110.29 144.34 105.78"/>
        <polyline class="cls-5" points="187.82 81.99 189.05 85.27 189.87 89.37"/>
        <polyline class="cls-5" points="187.41 81.99 188.64 85.27 189.87 89.37 191.1 93.88 192.33 98.4 193.56 103.32 194.38 108.65 196.44 119.32 198.08 129.99 199.72 140.65 200.13 145.57 200.95 150.5 201.36 155.01 201.77 159.11"/>
        <polyline class="cls-5" points="179.21 72.14 180.03 71.73 180.44 71.73"/>
        <polyline class="cls-5" points="162.8 139.01 163.62 134.5 164.85 129.16"/>
        <line class="cls-5" x1="151.31" y1="132.45" x2="162.8" y2="139.01"/>
        <polyline class="cls-5" points="163.21 136.96 163.34 137.03 201.77 159.11"/>
        <polyline class="cls-5" points="104.95 52.04 102.34 50.52 98.47 48.26 97.7 47.8 97.21 47.52 95.11 46.29"/>
        <polyline class="cls-5" points="104.95 59.01 104.95 56.14 104.95 55.32 104.95 52.04"/>
        <polyline class="cls-5" points="109.06 49.58 106.23 47.93 99.21 43.83"/>
        <line class="cls-5" x1="109.06" y1="78.7" x2="109.06" y2="49.58"/>
        <polyline class="cls-5" points="102.9 75.42 102.9 75.27 102.9 53.27"/>
        <polyline class="cls-5" points="93.06 69.68 93.06 69.59 93.06 47.52"/>
        <polyline class="cls-5" points="102.9 413.88 102.9 408.14 102.9 404.04"/>
        <line class="cls-5" x1="13.88" y1="24.96" x2="22.91" y2="30.29"/>
        <line class="cls-5" x1="145.57" y1="105.37" x2="134.9" y2="99.22"/>
        <polyline class="cls-5" points="136.54 96.75 136.8 96.9 146.8 102.5"/>
        <polyline class="cls-5" points="134.49 100.04 144.79 105.92 145.98 106.6"/>
        <line class="cls-5" x1="100.44" y1="46.29" x2="102.08" y2="46.7"/>
        <line class="cls-5" x1="99.21" y1="46.29" x2="99.62" y2="46.29"/>
        <polyline class="cls-5" points="97.16 47.52 97.21 47.52 97.57 47.52"/>
        <polyline class="cls-5" points="102.08 46.7 102.9 47.52 104.13 48.34 104.54 49.16 104.95 49.99 105.36 51.22 105.77 52.45 105.77 53.68 105.36 54.91 104.95 55.32"/>
        <line class="cls-5" x1="174.69" y1="156.65" x2="174.69" y2="147.63"/>
        <line class="cls-5" x1="102.9" y1="408.14" x2="152.54" y2="494.7"/>
        <line class="cls-5" x1="61.47" y1="489.78" x2="115.21" y2="458.6"/>
        <line class="cls-5" x1="61.47" y1="489.78" x2="55.72" y2="486.09"/>
        <polyline class="cls-5" points="80.34 452.86 80.51 452.95 96.75 462.29"/>
        <line class="cls-5" x1="102.9" y1="458.6" x2="102.9" y2="417.98"/>
        <line class="cls-5" x1="109.06" y1="400.34" x2="158.69" y2="429.47"/>
        <line class="cls-5" x1="102.9" y1="404.04" x2="55.72" y2="486.09"/>
        <line class="cls-5" x1="168.95" y1="152.96" x2="174.69" y2="156.65"/>
        <polyline class="cls-5" points="93.06 445.88 87.04 449.49 86.9 449.57"/>
        <polyline class="cls-5" points="109.06 443.83 115.58 440.16 115.62 440.14"/>
        <polyline class="cls-5" points="77.47 458.19 77.5 458.2 90.59 465.57"/>
        <polyline class="cls-5" points="132.03 423.73 131.86 423.83 123.13 428.98 123 429.06"/>
        <line class="cls-5" x1="20.44" y1="32.75" x2="11.42" y2="27.83"/>
        <line class="cls-5" x1="93.06" y1="402.39" x2="93.06" y2="196.86"/>
        <line class="cls-5" x1="162.8" y1="139.01" x2="176.33" y2="146.81"/>
        <line class="cls-5" x1="153.36" y1="142.29" x2="168.95" y2="151.32"/>
        <polyline class="cls-5" points="63.11 8.14 63.01 8.08 53.67 2.81"/>
        <line class="cls-5" x1="176.74" y1="75.83" x2="187.41" y2="81.99"/>
        <line class="cls-5" x1="151.72" y1="134.5" x2="174.69" y2="147.63"/>
        <polyline class="cls-5" points="189.46 77.88 189.05 78.29 188.64 78.7 188.23 79.52 187.82 79.93"/>
        <line class="cls-5" x1="55.72" y1=".34" x2="64.75" y2="5.68"/>
        <line class="cls-5" x1="190.28" y1="77.88" x2="189.46" y2="77.88"/>
        <line class="cls-5" x1="56.13" y1=".34" x2="55.72" y2=".34"/>
        <polyline class="cls-5" points="55.72 .34 54.9 .75 54.49 1.16 54.08 1.99 53.67 2.81"/>
        <polyline class="cls-5" points="190.69 79.11 190.69 78.29 190.28 77.88"/>
        <line class="cls-5" x1="53.67" y1="2.81" x2="53.67" y2="4.45"/>
        <line class="cls-5" x1="190.28" y1="80.75" x2="190.69" y2="79.11"/>
        <polyline class="cls-5" points="53.67 4.45 62.23 9.34 62.29 9.37"/>
        <line class="cls-5" x1="25.37" y1="30.7" x2="24.96" y2="30.29"/>
        <polyline class="cls-5" points="182.08 72.14 182.9 72.96 184.13 74.19"/>
        <line class="cls-5" x1="43.42" y1="431.52" x2="70.08" y2="446.7"/>
        <line class="cls-5" x1="49.57" y1="427.83" x2="93.06" y2="402.39"/>
        <polyline class="cls-5" points="58.19 432.75 87.96 415.62 88.13 415.52"/>
        <polyline class="cls-5" points="129.16 439.32 143.82 430.76 143.93 430.7"/>
        <polyline class="cls-5" points="125.87 433.98 125.96 433.93 138.11 427.46 138.18 427.42"/>
        <polyline class="cls-5" points="112.75 434.8 112.57 434.9 109.06 436.86"/>
        <line class="cls-5" x1="176.33" y1="146.81" x2="151.31" y2="132.45"/>
        <line class="cls-5" x1="174.69" y1="147.63" x2="176.33" y2="146.81"/>
        <line class="cls-5" x1="174.69" y1="156.65" x2="176.33" y2="155.83"/>
        <polyline class="cls-5" points="93.06 402.39 93.06 406.76 93.06 406.91"/>
        <line class="cls-5" x1="102.9" y1="417.98" x2="102.9" y2="413.88"/>
        <line class="cls-5" x1="102.9" y1="408.14" x2="109.06" y2="404.45"/>
        <line class="cls-5" x1="152.54" y1="494.7" x2="143.93" y2="489.78"/>
        <line class="cls-5" x1="158.69" y1="491.01" x2="152.54" y2="494.7"/>
        <line class="cls-5" x1="115.21" y1="465.57" x2="115.21" y2="458.6"/>
        <line class="cls-5" x1="111.52" y1="449.57" x2="118.49" y2="445.47"/>
        <polyline class="cls-5" points="115.21 458.6 131.6 468.2 132.03 468.45"/>
        <polyline class="cls-5" points="115.21 465.57 137.66 478.8 138.18 479.11"/>
        <line class="cls-5" x1="158.69" y1="477.06" x2="146.8" y2="470.09"/>
        <polyline class="cls-5" points="158.69 477.06 152.56 480.33 152.54 480.34"/>
        <line class="cls-5" x1="164.85" y1="487.73" x2="158.69" y2="477.06"/>
        <line class="cls-5" x1="158.69" y1="491.01" x2="164.85" y2="487.73"/>
        <polyline class="cls-5" points="55.72 486.09 49.66 496.6 49.57 496.75"/>
        <line class="cls-5" x1="55.72" y1="500.04" x2="61.47" y2="489.78"/>
        <line class="cls-5" x1="115.21" y1="458.6" x2="109.06" y2="455.32"/>
        <line class="cls-5" x1="55.72" y1="500.04" x2="115.21" y2="465.57"/>
        <line class="cls-5" x1="49.57" y1="496.75" x2="55.72" y2="500.04"/>
        <line class="cls-5" x1="43.42" y1="431.52" x2="49.57" y2="427.83"/>
        <line class="cls-5" x1="37.26" y1="434.8" x2="43.42" y2="431.52"/>
        <polyline class="cls-5" points="37.26 434.8 67.06 451.96 67.21 452.04"/>
        <line class="cls-5" x1="67.21" y1="6.09" x2="68.03" y2="6.09"/>
        <line class="cls-5" x1="67.21" y1="6.09" x2="182.08" y2="72.14"/>
        <line class="cls-5" x1="97.16" y1="52.45" x2="96.75" y2="52.86"/>
        <line class="cls-5" x1="98.39" y1="54.5" x2="98.8" y2="54.09"/>
        <line class="cls-5" x1="102.9" y1="53.27" x2="104.95" y2="52.04"/>
        <line class="cls-5" x1="93.06" y1="47.52" x2="102.9" y2="53.27"/>
        <polyline class="cls-5" points="99.21 46.7 99.62 46.29 100.44 46.29"/>
        <line class="cls-5" x1="102.9" y1="47.93" x2="104.13" y2="49.58"/>
        <line class="cls-5" x1="99.21" y1="47.11" x2="98.8" y2="47.11"/>
        <line class="cls-5" x1="104.54" y1="49.16" x2="107" y2="50.81"/>
        <line class="cls-5" x1="97.57" y1="47.52" x2="97.57" y2="45.06"/>
        <polyline class="cls-5" points="97.57 47.93 97.7 47.8 97.98 47.52 98.8 47.52 100.03 47.93 101.67 49.16"/>
        <polyline class="cls-5" points="103.72 51.22 102.9 49.99 102.08 48.75"/>
        <line class="cls-5" x1="102.9" y1="404.04" x2="102.9" y2="202.19"/>
        <line class="cls-5" x1="12.65" y1="25.37" x2="22.09" y2="30.7"/>
        <polyline class="cls-5" points="165.67 152.96 125.97 130.05 125.87 129.99"/>
        <line class="cls-5" x1="165.67" y1="161.99" x2="165.67" y2="152.96"/>
        <line class="cls-5" x1="98.39" y1="52.86" x2="97.57" y2="52.04"/>
        <polyline class="cls-5" points="98.8 54.09 98.72 53.84 98.39 52.86"/>
        <line class="cls-5" x1="98.8" y1="53.68" x2="98.39" y2="52.86"/>
        <line class="cls-5" x1="97.57" y1="45.06" x2="99.62" y2="46.29"/>
        <polyline class="cls-5" points="106.18 47.93 106.23 47.93 106.59 47.93"/>
        <line class="cls-5" x1="98.39" y1="52.86" x2="97.16" y2="52.45"/>
        <polyline class="cls-5" points="106.59 47.93 107 47.93 107 48.34"/>
        <line class="cls-5" x1="97.57" y1="52.04" x2="97.16" y2="52.45"/>
        <line class="cls-5" x1="98.8" y1="53.68" x2="98.8" y2="54.09"/>
        <polyline class="cls-5" points="98.39 54.5 98.72 53.84 98.8 53.68"/>
        <line class="cls-5" x1="97.16" y1="54.09" x2="98.39" y2="54.5"/>
        <line class="cls-5" x1="96.75" y1="52.86" x2="97.16" y2="54.09"/>
        <line class="cls-5" x1="167.31" y1="152.14" x2="153.77" y2="144.34"/>
        <line class="cls-5" x1="104.95" y1="56.14" x2="107" y2="57.37"/>
        <line class="cls-5" x1="107" y1="50.81" x2="109.06" y2="49.58"/>
        <line class="cls-5" x1="95.11" y1="46.29" x2="93.06" y2="47.52"/>
        <line class="cls-5" x1="107" y1="50.81" x2="107" y2="57.37"/>
        <line class="cls-5" x1="107" y1="57.37" x2="104.95" y2="59.01"/>
        <line class="cls-5" x1="99.21" y1="43.83" x2="97.57" y2="45.06"/>
        <line class="cls-5" x1="168.95" y1="151.32" x2="167.31" y2="152.14"/>
        <line class="cls-5" x1="168.95" y1="159.93" x2="167.31" y2="160.75"/>
        <line class="cls-5" x1="158.69" y1="429.47" x2="150.08" y2="434.39"/>
        <line class="cls-5" x1="102.9" y1="404.04" x2="96.75" y2="400.34"/>
        <line class="cls-5" x1="43.42" y1="493.06" x2="49.57" y2="496.75"/>
        <polyline class="cls-5" points="146.8 102.5 147.21 102.09 148.03 102.5"/>
        <polyline class="cls-5" points="145.57 105.37 145.57 104.55 145.57 103.73 145.98 103.32 146.8 102.5"/>
        <line class="cls-5" x1="148.03" y1="102.5" x2="148.44" y2="102.91"/>
        <polyline class="cls-5" points="12.65 25.37 13.47 24.96 13.88 24.96"/>
        <line class="cls-5" x1="148.44" y1="102.91" x2="148.44" y2="104.14"/>
        <line class="cls-5" x1="145.98" y1="106.6" x2="145.57" y2="105.37"/>
        <polyline class="cls-5" points="11.42 27.83 11.42 27.01 11.83 26.6 12.24 25.78 12.65 25.37"/>
        <line class="cls-5" x1="11.83" y1="29.06" x2="11.42" y2="27.83"/>
        <line class="cls-5" x1="148.44" y1="104.14" x2="145.98" y2="106.6"/>
        <polyline class="cls-5" points="11.83 29.06 19.9 33.91 20.03 33.99"/>
        <line class="cls-5" x1="165.67" y1="161.99" x2="124.64" y2="137.78"/>
        <line class="cls-5" x1="167.31" y1="152.14" x2="165.67" y2="152.96"/>
        <line class="cls-5" x1="167.31" y1="161.16" x2="165.67" y2="161.99"/>
        <line class="cls-5" x1="177.97" y1="145.99" x2="163.21" y2="137.78"/>
        <line class="cls-5" x1="176.33" y1="146.81" x2="177.97" y2="145.99"/>
        <line class="cls-5" x1="177.97" y1="155.01" x2="177.97" y2="145.99"/>
        <line class="cls-5" x1="176.33" y1="155.83" x2="177.97" y2="155.01"/>
        <polyline class="cls-5" points="98.8 47.93 98.47 48.26 98.39 48.34"/>
        <polyline class="cls-5" points="97.98 47.11 98.39 47.11 98.8 47.11 100.03 47.93"/>
        <polyline class="cls-5" points="104.95 51.63 105.36 52.86 105.36 53.68 105.36 54.5 104.95 55.32"/>
        <polyline class="cls-5" points="100.03 47.93 100.85 48.34 101.67 49.16 102.9 50.81"/>
        <line class="cls-5" x1="98.39" y1="47.11" x2="99.21" y2="46.7"/>
        <line class="cls-5" x1="100.44" y1="46.29" x2="101.67" y2="47.11"/>
        <line class="cls-5" x1="99.21" y1="46.7" x2="99.21" y2="46.29"/>
        <line class="cls-5" x1="102.08" y1="48.75" x2="100.44" y2="47.52"/>
        <line class="cls-5" x1="97.57" y1="47.52" x2="97.98" y2="47.11"/>
        <line class="cls-5" x1="104.13" y1="49.58" x2="104.95" y2="51.63"/>
        <line class="cls-5" x1="101.67" y1="47.11" x2="102.9" y2="47.93"/>
        <line class="cls-5" x1="100.44" y1="47.52" x2="99.21" y2="47.11"/>
        <line class="cls-5" x1="180.03" y1="72.14" x2="190.28" y2="77.88"/>
        <line class="cls-5" x1="187.41" y1="81.99" x2="190.28" y2="80.75"/>
        <polyline class="cls-5" points="12.65 58.19 11.57 61.77 11.42 62.29 9.78 71.32"/>
        <polyline class="cls-5" points="139.41 96.34 138.59 96.34 137.77 96.34 137.36 96.34 136.8 96.9 136.54 97.16 135.72 97.99 134.83 99.17 134.49 99.63 134.35 99.98 133.67 101.68 132.85 104.14 131.62 106.6 130.8 109.47 129.98 112.75 129.16 116.45 127.93 120.14 127.11 124.24 126.28 128.34 125.97 130.05 124.64 137.37 123 146.81 121.36 156.65 118.49 175.93 117.67 185.37 116.44 193.99 116.03 198.09 115.62 202.19 115.21 205.88 115.21 209.16"/>
        <polyline class="cls-5" points="24.96 30.29 23.73 29.88 22.91 30.29 22.09 30.7 20.85 31.93 20.44 32.75 20.03 33.58 19.9 33.91 19.21 35.63 17.98 37.68 17.16 40.55 16.96 41.27 16.34 43.42 16.09 44.08 15.11 46.7 14.29 50.4 14.02 51.61 13.47 54.09 12.65 58.19 11.83 62.29 10.37 68.7 9.78 71.32 9.58 72.5 8.29 79.86 8.14 80.75 8 81.85 6.91 90.19 4.69 105.4 4.04 109.88 3.51 113.76 3.08 116.89 2.8 118.91 2.39 123.42 1.98 127.93 1.57 132.04 1.16 136.14 .75 139.83 .34 143.11"/>
        <polyline class="cls-5" points="24.96 30.29 52.9 46.42 93.06 69.59 102.9 75.27 109.01 78.79 139.41 96.34"/>
        <line class="cls-5" x1="126.28" y1="128.34" x2="153.77" y2="144.34"/>
        <polyline class="cls-5" points=".34 143.11 102.95 202.11 115.21 209.16"/>
        <line class="cls-5" x1="176.33" y1="155.83" x2="176.33" y2="146.81"/>
        <polyline class="cls-5" points="125.54 457.59 131.6 468.2 137.66 478.8 143.93 489.78"/>
        <polyline class="cls-5" points="102.9 417.98 109.06 428.76 112.57 434.9 115.58 440.16 121.03 449.71 125.53 457.59"/>
        <line class="cls-5" x1="114.35" y1="413.68" x2="109.06" y2="404.45"/>
        <polyline class="cls-5" points="158.69 491.01 152.56 480.33 146.72 470.14 125.96 433.93 123.13 428.98 114.36 413.69"/>
        <polyline class="cls-5" points="125.87 457.78 125.54 457.59 125.53 457.59 109.06 448.34"/>
        <polyline class="cls-5" points="109.06 455.32 103.02 458.81 96.81 462.39 66.84 479.68 64.38 481.1 55.72 486.09"/>
        <line class="cls-5" x1="72.95" y1="441.37" x2="49.57" y2="427.83"/>
        <polyline class="cls-5" points="102.9 458.6 93.06 452.95 87.04 449.49 83.62 447.52"/>
        <polyline class="cls-5" points="56.96 25.78 57.78 22.09 58.8 19.36 59.01 18.81"/>
        <polyline class="cls-5" points="162.8 139.01 163.21 137.51 163.34 137.03 164.03 134.5 164.85 129.16 165.67 123.42 166.9 117.68 168.95 105.37 170.18 99.63 171.41 93.88 172.64 88.55 173.87 83.63 175.1 79.52 175.92 77.88 176.33 76.24 176.65 75.77 177.15 75.01 177.66 74.25 177.97 73.78 178.38 72.96 179.21 72.14 179.62 72.14 180.03 72.14 180.44 71.73 181.26 71.73 182.08 72.14"/>
        <polyline class="cls-5" points="52.85 46.7 52.9 46.42 54.49 38.09 56.13 29.88 56.96 25.78 57.78 23.32 58.19 22.09 59.01 18.81 59.22 17.97 59.83 15.52 60.65 13.06 61.47 10.6 62.23 9.34 62.7 8.55 63.01 8.08 63.52 7.32 64.34 6.09 65.57 5.68 66.39 5.68 67.21 6.09"/>
        <polyline class="cls-5" points="109.06 404.45 109.06 400.34 109.06 205.88"/>
        <polyline class="cls-5" points="109.06 455.32 109.06 448.34 109.06 443.83 109.06 436.86 109.06 428.76 109.06 428.65"/>
        <polyline class="cls-5" points="93.06 453.27 93.06 452.95 93.06 445.88 93.06 431.05 93.06 430.7"/>
        <polyline class="cls-5" points="168.95 159.93 168.95 152.96 168.95 151.32"/>
        <polyline class="cls-5" points="113.98 413.47 114.35 413.68 114.36 413.69 131.86 423.83 138.11 427.46 143.82 430.76 150.08 434.39"/>
        <polyline class="cls-5" points="102.9 413.88 93.06 431.05 83.62 447.52 80.51 452.95 77.5 458.2 64.38 481.1 64.34 481.16"/>
        <polyline class="cls-5" points="43.42 493.06 67.06 451.96 70.08 446.7 82.72 424.73 87.96 415.62 93.06 406.76 96.75 400.34"/>
        <line class="cls-5" x1="137.77" y1="96.34" x2="148.03" y2="102.5"/>
        <polyline class="cls-5" points="167.31 161.16 167.31 160.75 167.31 152.14"/>
        <line class="cls-5" x1="164.85" y1="147.63" x2="164.85" y2="147.22"/>
        <line class="cls-5" x1="163.21" y1="145.57" x2="162.8" y2="146.4"/>
        <line class="cls-5" x1="162.8" y1="146.4" x2="163.21" y2="147.63"/>
        <line class="cls-5" x1="164.03" y1="148.04" x2="164.44" y2="148.04"/>
        <line class="cls-5" x1="163.62" y1="147.63" x2="164.03" y2="148.04"/>
        <line class="cls-5" x1="165.26" y1="147.63" x2="164.85" y2="147.63"/>
        <line class="cls-5" x1="165.26" y1="147.22" x2="165.26" y2="147.63"/>
        <line class="cls-5" x1="164.85" y1="147.63" x2="165.26" y2="147.22"/>
        <line class="cls-5" x1="165.26" y1="147.22" x2="164.85" y2="147.22"/>
        <line class="cls-5" x1="165.26" y1="146.4" x2="165.26" y2="147.22"/>
        <line class="cls-5" x1="164.85" y1="145.99" x2="165.26" y2="146.4"/>
        <line class="cls-5" x1="164.44" y1="145.57" x2="164.85" y2="145.99"/>
        <line class="cls-5" x1="164.03" y1="145.57" x2="164.44" y2="145.57"/>
        <line class="cls-5" x1="163.21" y1="147.63" x2="163.62" y2="147.63"/>
        <line class="cls-5" x1="164.85" y1="148.04" x2="164.85" y2="147.63"/>
        <line class="cls-5" x1="163.62" y1="145.57" x2="164.03" y2="145.57"/>
        <line class="cls-5" x1="164.03" y1="145.99" x2="163.62" y2="145.57"/>
        <line class="cls-5" x1="164.85" y1="147.63" x2="164.44" y2="148.04"/>
        <line class="cls-5" x1="164.85" y1="147.22" x2="164.44" y2="146.4"/>
        <line class="cls-5" x1="164.85" y1="145.99" x2="164.44" y2="146.4"/>
        <line class="cls-5" x1="164.44" y1="146.4" x2="164.03" y2="145.99"/>
        <line class="cls-5" x1="163.62" y1="145.57" x2="163.21" y2="145.57"/>
        <line class="cls-5" x1="164.85" y1="148.04" x2="164.44" y2="148.04"/>
        <line class="cls-5" x1="154.18" y1="153.37" x2="153.77" y2="153.37"/>
        <line class="cls-5" x1="153.36" y1="152.55" x2="153.77" y2="153.37"/>
        <line class="cls-5" x1="153.36" y1="152.14" x2="153.36" y2="152.55"/>
        <polyline class="cls-5" points="153.77 152.55 153.77 152.96 153.77 153.37"/>
        <line class="cls-5" x1="153.77" y1="152.55" x2="153.36" y2="152.55"/>
        <line class="cls-5" x1="153.77" y1="152.14" x2="153.36" y2="152.14"/>
        <line class="cls-5" x1="154.18" y1="155.01" x2="154.59" y2="155.01"/>
        <line class="cls-5" x1="154.59" y1="155.01" x2="155" y2="155.42"/>
        <line class="cls-5" x1="156.23" y1="153.78" x2="156.23" y2="153.37"/>
        <line class="cls-5" x1="155" y1="150.5" x2="155" y2="150.91"/>
        <line class="cls-5" x1="154.18" y1="150.09" x2="154.18" y2="150.5"/>
        <line class="cls-5" x1="152.13" y1="150.5" x2="152.13" y2="151.32"/>
        <line class="cls-5" x1="152.54" y1="151.32" x2="152.13" y2="151.32"/>
        <line class="cls-5" x1="153.77" y1="151.73" x2="152.13" y2="151.73"/>
        <line class="cls-5" x1="152.54" y1="150.09" x2="154.18" y2="150.09"/>
        <line class="cls-5" x1="154.59" y1="155.42" x2="154.18" y2="155.01"/>
        <line class="cls-5" x1="154.18" y1="154.6" x2="154.18" y2="155.01"/>
        <line class="cls-5" x1="155" y1="152.96" x2="156.23" y2="152.96"/>
        <line class="cls-5" x1="154.18" y1="151.32" x2="154.18" y2="151.73"/>
        <line class="cls-5" x1="153.77" y1="151.73" x2="154.18" y2="151.73"/>
        <line class="cls-5" x1="155" y1="152.96" x2="154.59" y2="152.96"/>
        <line class="cls-5" x1="155" y1="150.91" x2="154.18" y2="151.32"/>
        <line class="cls-5" x1="154.18" y1="151.73" x2="152.54" y2="151.32"/>
        <line class="cls-5" x1="152.13" y1="151.32" x2="151.72" y2="150.5"/>
        <line class="cls-5" x1="155.41" y1="155.42" x2="155" y2="155.42"/>
        <line class="cls-5" x1="152.13" y1="150.5" x2="152.13" y2="150.09"/>
        <line class="cls-5" x1="152.13" y1="150.09" x2="152.54" y2="150.09"/>
        <polyline class="cls-5" points="153.77 152.14 154.18 152.96 154.18 153.37"/>
        <line class="cls-5" x1="155" y1="152.96" x2="154.18" y2="154.6"/>
        <line class="cls-5" x1="154.59" y1="155.42" x2="155" y2="155.42"/>
        <line class="cls-5" x1="155" y1="152.96" x2="155" y2="152.55"/>
        <line class="cls-5" x1="154.59" y1="151.73" x2="154.18" y2="151.73"/>
        <polyline class="cls-5" points="155 152.96 154.53 153.19 154.18 153.37"/>
        <line class="cls-5" x1="153.36" y1="152.14" x2="154.18" y2="151.73"/>
        <line class="cls-5" x1="154.59" y1="155.01" x2="154.18" y2="154.6"/>
        <polyline class="cls-5" points="154.59 152.96 154.53 153.19 154.18 154.6"/>
        <polyline class="cls-5" points="156.23 152.96 156.23 152.14 155.82 151.32 155.41 150.91 155 150.5"/>
        <line class="cls-5" x1="152.13" y1="151.32" x2="152.13" y2="151.73"/>
        <line class="cls-5" x1="156.23" y1="153.78" x2="155.41" y2="155.42"/>
        <line class="cls-5" x1="152.13" y1="150.5" x2="151.72" y2="150.5"/>
        <polyline class="cls-5" points="155 152.55 155 152.14 154.59 151.73"/>
        <line class="cls-5" x1="156.23" y1="152.96" x2="156.23" y2="153.37"/>
        <line class="cls-5" x1="154.18" y1="150.5" x2="155" y2="150.5"/>
      </g>
    </g>
  </g>
</svg>