<?xml version="1.0" encoding="UTF-8"?>
<svg id="Capa_2" data-name="Capa 2" xmlns="http://www.w3.org/2000/svg" viewBox="0 0 338.77 507.4">
  <defs>
    <style>
      .cls-1 {
        fill: none;
        stroke: #000;
        stroke-linecap: round;
        stroke-linejoin: round;
        stroke-width: .75px;
      }

      .cls-2 {
        fill: #bf2b2b;
      }

      .cls-3 {
        fill: #ce4d4d;
      }

      .cls-4 {
        fill: #8e1c1c;
      }
    </style>
  </defs>
  <g id="Ilustración_de_conjunto_de_iconos" data-name="Ilustración de conjunto de iconos">
    <g>
      <g>
        <path class="cls-3" d="M326.27,49.74c7.95,10.6,12.12,22.15,12.12,33.89,0,10.52-3.35,20.89-9.77,30.55-.73,1.12-1.52,2.24-2.35,3.34-1.07,1.43-2.21,2.84-3.43,4.23-.26.32-.53.62-.8.93-6.84,7.65-15.62,14.58-25.99,20.57.71-.51,1.19-1.12,1.19-2.06,0-2.53-3.48-7.42-6.99-9.18,22.19-12.15,38.38-32.82,38.38-53.5s-16.19-41.34-38.38-53.49c2.04-1.22,4.54-1.8,5.8-1,12.66,7.31,22.95,16.02,30.22,25.72Z"/>
        <path class="cls-4" d="M328.64,114.19v288.64h-4.88l-4.88-184.38v-20.49l3.98-76.2h-.01c1.22-1.4,2.36-2.81,3.43-4.24.83-1.1,1.62-2.22,2.35-3.34h.01Z"/>
        <path class="cls-4" d="M283.36,34.12c20.37,11.44,35.85,29.99,35.52,49.51,0,.56-.01,1.12-.04,1.67-.08,1.96-.32,3.91-.72,5.86-3.08-16.67-17.23-31.71-34.76-41.67v-15.37Z"/>
        <path class="cls-3" d="M318.11,91.16c.4-1.95.64-3.9.72-5.86.03-.56.04-1.11.04-1.67.33-19.52-15.15-38.07-35.52-49.51-.34-2.32,3.5-7.4,6.9-9.1,22.19,12.15,38.38,32.82,38.38,53.49s-16.19,41.35-38.38,53.5c-1.99-1.2-4.42-1.77-5.7-1.05h0c10.65-6.18,19.05-13.35,24.88-21.12,4.51-6.02,7.41-12.31,8.68-18.68Z"/>
        <path class="cls-4" d="M318.88,197.97v20.38l-27.64,3.15h-.01c5.89-6.6,10.07-14.04,11.63-21.8l16.02-1.84v.11Z"/>
        <path class="cls-3" d="M318.88,194.73v3.13l-16.02,1.84c.39-1.92.62-3.87.66-5.82l14.44-1.65.92,2.5Z"/>
        <path class="cls-4" d="M296.06,143.26c10.37-5.99,19.15-12.92,25.99-20.57-6.74,11.88-18.41,22.13-31.79,29.81v-5.89l5.8-3.35Z"/>
        <path class="cls-4" d="M303.52,193.88c-.04,1.95-.27,3.9-.66,5.82-1.56,7.76-5.74,15.2-11.63,21.79-5.14,5.76-11.59,10.86-18.72,14.96l-.05-4.53c17.61-10.12,31-26.35,31.04-43.38l.03,3.57c.02.59.02,1.18,0,1.77Z"/>
        <path class="cls-3" d="M303.49,187.59c.01.32.01.63.01.95-.04,17.03-13.43,33.26-31.04,43.38l-72.88,43.07v-70.13l87.06-50.27c10.3,9.18,16.81,20.96,16.85,33Z"/>
        <path class="cls-3" d="M297.25,141.19c0,.94-.48,1.55-1.19,2.06l-5.8,3.35-91.78,52.99c.71-.51,1.19-1.12,1.19-2.06,0-2.53-3.48-7.42-6.99-9.19l97.58-56.33c3.51,1.76,6.99,6.65,6.99,9.18Z"/>
        <path class="cls-3" d="M296.06,24.02c-1.26-.8-3.76-.22-5.8,1-21.04-12.81-56.84-22.16-92.65-22.16V.38c18.9,0,37.6,2.24,55.02,6.59,16.12,4.02,30.86,9.8,43.43,17.06Z"/>
        <path class="cls-4" d="M290.25,146.6v5.89l-3.62,2.09-87.06,50.27-6.9,3.98v-10.24c2.04,1.22,4.54,1.79,5.8,1l91.78-52.99Z"/>
        <path class="cls-3" d="M290.25,132.02l-97.58,56.33c-1.99-1.19-4.42-1.77-5.7-1.05h0s79.67-46,79.67-46l17.81-10.28s.06-.04.1-.05c1.28-.72,3.71-.15,5.7,1.05Z"/>
        <path class="cls-4" d="M207.36,29.23c-3.24-.16-6.5-.24-9.76-.24s-6.52.08-9.76.24c-29.76,1.49-58.43,9.58-75.99,20.27v-15.37c19.47-11.85,52.61-20.5,85.75-20.5s66.28,8.65,85.75,20.5v15.37c-17.56-10.69-46.23-18.78-75.99-20.27Z"/>
        <path class="cls-3" d="M290.25,25.02c-3.4,1.7-7.24,6.78-6.9,9.1-19.47-11.85-52.61-20.5-85.75-20.5s-66.28,8.65-85.75,20.5c.34-2.32-3.51-7.4-6.9-9.1C125.99,12.22,161.8,2.86,197.61,2.86s71.61,9.35,92.65,22.16Z"/>
        <polygon class="cls-4" points="272.45 231.91 272.5 236.44 207.36 274.94 207.36 274.94 199.58 279.55 199.58 274.98 272.45 231.91"/>
        <path class="cls-3" d="M266.65,141.3l-79.67,45.99h0s-.07.04-.1.06c-.77.44-1.11,1.25-1.1,2.14v15.37l-12.35,85.59h-.01l-5.43,3.21L18.16,207.15l9.9-5.85,94.57-55.89c15.2-9.37,39.59-16.7,65.21-18.3,1.03-.06,2.06-.12,3.09-.16.68-.03,1.36-.06,2.04-.08,2.66-.08,5.32-.1,7.98-.06.55.01,1.09.02,1.64.04,1.59.03,3.18.09,4.77.17,22.61,1.16,44.44,6.56,59.28,14.27Z"/>
        <polygon class="cls-2" points="207.36 274.94 207.36 324.36 199.32 324.36 199.58 320.94 199.58 300.45 199.58 279.55 207.36 274.94"/>
        <path class="cls-2" d="M207.36,126.98v.04c-1.59-.08-3.18-.14-4.77-.17v-4.54h4.77v4.67Z"/>
        <path class="cls-2" d="M207.36,29.23v93.09h-19.52V29.23c3.24-.16,6.5-.24,9.76-.24s6.52.08,9.76.24Z"/>
        <path class="cls-3" d="M202.38,122.9l-1.42,3.89v.02c-2.66-.04-5.32-.02-7.98.06-.68.02-1.36.05-2.04.08l1.68-4.63h4.99s4.77.58,4.77.58Z"/>
        <polygon class="cls-4" points="199.58 300.45 199.58 320.94 185.77 328.9 185.77 308.43 192.68 208.84 199.58 204.85 199.58 274.98 199.58 279.55 199.58 300.45"/>
        <polygon class="cls-4" points="199.58 320.94 199.32 324.36 185.77 503.05 178.88 507.02 185.77 328.9 199.58 320.94"/>
        <path class="cls-2" d="M199.66,197.53c0,.94-.48,1.55-1.19,2.06-1.26.79-3.76.22-5.8-1v10.24l-6.9-3.98v-15.37c0-.89.33-1.7,1.1-2.14.03-.02.06-.04.1-.05,1.28-.72,3.71-.14,5.7,1.05,3.51,1.77,6.99,6.66,6.99,9.19Z"/>
        <path class="cls-3" d="M197.61.38v2.49c-35.81,0-71.62,9.35-92.65,22.16-2.04-1.22-4.55-1.8-5.81-1,12.66-7.29,27.36-13.05,43.44-17.06C160,2.61,178.7.38,197.61.38Z"/>
        <path class="cls-2" d="M197.61,122.31h-4.99s-1.68,4.64-1.68,4.64c-1.03.04-2.06.1-3.09.16v-4.8h9.76Z"/>
        <polygon class="cls-2" points="192.68 208.84 185.77 308.43 171.98 300.45 172.41 297.48 172.7 295.41 173.41 290.44 173.43 290.44 185.77 204.85 192.68 208.84"/>
        <polygon class="cls-2" points="185.77 308.43 185.77 328.9 171.98 320.94 171.98 317.77 171.98 300.45 185.77 308.43"/>
        <polygon class="cls-2" points="185.77 328.9 178.88 507.02 171.98 503.05 171.98 320.94 185.77 328.9"/>
        <polygon class="cls-4" points="167.99 293.65 173.41 290.44 172.7 295.41 170.66 296.62 168.04 298.18 167.99 293.65"/>
        <path class="cls-2" d="M172.41,297.48l-.43,2.97v17.31c-27.15-13.56-53.46-27.69-78.85-42.35-22.59-13.04-44.46-26.5-65.54-40.36-3.48-2.28-6.93-4.57-10.36-6.87v-20.49c.32.21.64.43.95.64l.04,3.35,149.82,86.49,2.63-1.55c.58.29,1.16.57,1.74.86Z"/>
        <polygon class="cls-2" points="167.99 293.65 168.04 298.18 18.22 211.69 18.18 208.34 18.16 207.15 167.99 293.65"/>
        <path class="cls-3" d="M104.95,25.02c3.39,1.7,7.24,6.78,6.9,9.1L14.27,90.47c.34-2.32-3.51-7.4-6.9-9.1L104.95,25.02Z"/>
        <polygon class="cls-4" points="21.16 101.85 14.27 105.84 14.27 90.47 111.86 34.12 111.86 49.49 21.16 101.85"/>
        <path class="cls-3" d="M104.95,25.02L7.38,81.36c-1.98-1.19-4.41-1.77-5.7-1.06L99.15,24.02c1.26-.8,3.77-.22,5.81,1Z"/>
        <polygon class="cls-4" points="21.16 101.85 28.07 201.31 18.16 207.15 17.23 207.69 14.27 209.4 14.27 105.84 21.16 101.85"/>
        <path class="cls-4" d="M27.59,235.06l-6.42,172.95-6.89,3.99v-202.59l2.95-1.71v20.49c3.43,2.3,6.88,4.59,10.36,6.87Z"/>
        <path class="cls-2" d="M7.38,81.36c3.39,1.7,7.24,6.78,6.9,9.1v15.37l-6.9-3.99v-10.24c-3.52-1.76-6.99-6.65-7-9.19,0-.93.48-1.55,1.19-2.05.03-.02.07-.04.11-.06,1.29-.71,3.72-.13,5.7,1.06Z"/>
        <polygon class="cls-2" points="14.27 229.9 14.27 411.99 7.38 408.01 .48 221.93 .48 201.44 14.27 209.4 14.27 229.9"/>
        <polygon class="cls-2" points="14.27 105.84 14.27 209.4 .48 201.44 7.38 101.85 14.27 105.84"/>
      </g>
      <g>
        <line class="cls-1" x1="202.59" y1="122.31" x2="202.38" y2="122.9"/>
        <polyline class="cls-1" points="199.58 320.94 199.32 324.36 185.77 503.05"/>
        <line class="cls-1" x1="7.38" y1="101.85" x2=".48" y2="201.44"/>
        <polyline class="cls-1" points="187.84 29.22 187.84 29.23 187.84 122.31"/>
        <line class="cls-1" x1="185.77" y1="189.48" x2="185.77" y2="204.85"/>
        <line class="cls-1" x1="7.38" y1="101.85" x2="14.27" y2="105.84"/>
        <path class="cls-1" d="M266.65,141.3c-14.84-7.71-36.67-13.11-59.28-14.27-1.59-.08-3.18-.14-4.77-.17-.55-.02-1.09-.03-1.64-.04-2.66-.04-5.32-.02-7.98.06-.68.02-1.36.05-2.04.08-1.03.04-2.06.1-3.09.16-25.62,1.6-50.01,8.93-65.21,18.3"/>
        <polyline class="cls-1" points="171.98 320.94 171.98 317.77 171.98 300.45"/>
        <path class="cls-1" d="M290.25,152.49c13.38-7.68,25.05-17.93,31.79-29.81l-3.17,64.01"/>
        <polyline class="cls-1" points="192.68 208.84 199.58 204.85 286.64 154.59 290.25 152.49"/>
        <line class="cls-1" x1="7.38" y1="408.01" x2=".48" y2="221.93"/>
        <polyline class="cls-1" points="122.64 145.41 28.07 201.31 18.16 207.15"/>
        <polyline class="cls-1" points="318.88 186.69 318.88 192.1 318.88 194.73 318.88 197.85 318.88 197.97"/>
        <path class="cls-1" d="M272.5,236.44c7.13-4.1,13.58-9.2,18.72-14.96,5.89-6.59,10.07-14.03,11.63-21.79.39-1.92.62-3.87.66-5.82.03-.59.03-1.18,0-1.77"/>
        <polyline class="cls-1" points="18.22 211.69 18.18 208.34 18.16 207.15"/>
        <path class="cls-1" d="M171.98,317.77c-27.15-13.56-53.46-27.69-78.85-42.35-22.59-13.04-44.46-26.5-65.54-40.36-3.48-2.28-6.93-4.57-10.36-6.87"/>
        <polyline class="cls-1" points="173.41 290.44 172.7 295.41 172.41 297.48 171.98 300.45"/>
        <line class="cls-1" x1="185.77" y1="204.85" x2="173.43" y2="290.44"/>
        <polyline class="cls-1" points="186.98 187.28 266.65 141.3 284.45 131.02"/>
        <line class="cls-1" x1="202.59" y1="122.31" x2="197.61" y2="122.31"/>
        <polyline class="cls-1" points="296.06 143.26 290.25 146.6 198.48 199.6"/>
        <path class="cls-1" d="M192.68,188.35c-1.99-1.19-4.42-1.77-5.7-1.05-.04.01-.07.03-.1.05"/>
        <polyline class="cls-1" points="111.86 49.49 21.16 101.85 14.27 105.84"/>
        <path class="cls-1" d="M1.57,80.36c-.71.5-1.19,1.12-1.19,2.05.01,2.54,3.48,7.43,7,9.19"/>
        <line class="cls-1" x1="21.16" y1="408.01" x2="14.27" y2="411.99"/>
        <path class="cls-1" d="M192.68,198.6c2.04,1.22,4.54,1.79,5.8,1"/>
        <line class="cls-1" x1="207.36" y1="274.94" x2="272.5" y2="236.44"/>
        <line class="cls-1" x1="199.58" y1="279.55" x2="207.36" y2="274.94"/>
        <path class="cls-1" d="M283.36,49.49c-17.56-10.69-46.23-18.78-75.99-20.27-3.24-.16-6.5-.24-9.76-.24s-6.52.08-9.76.24c-29.76,1.49-58.43,9.58-75.99,20.27"/>
        <path class="cls-1" d="M296.06,24.02c12.66,7.31,22.95,16.02,30.22,25.72,7.95,10.6,12.12,22.15,12.12,33.89,0,10.52-3.35,20.89-9.77,30.55-.73,1.12-1.52,2.24-2.35,3.34-1.07,1.43-2.21,2.84-3.43,4.23-.26.32-.53.62-.8.93-6.84,7.65-15.62,14.58-25.99,20.57"/>
        <line class="cls-1" x1="192.61" y1="122.32" x2="190.93" y2="126.95"/>
        <line class="cls-1" x1="168.04" y1="298.18" x2="167.99" y2="293.65"/>
        <polyline class="cls-1" points="18.22 211.69 168.04 298.18 170.66 296.62 172.7 295.41"/>
        <polyline class="cls-1" points="185.77 204.85 192.68 208.84 185.77 308.43"/>
        <polyline class="cls-1" points="199.58 320.94 199.58 300.45 199.58 279.55 199.58 274.98 199.58 204.85"/>
        <polyline class="cls-1" points="302.82 199.69 302.86 199.69 318.88 197.85"/>
        <path class="cls-1" d="M18.18,208.34c-.31-.21-.63-.43-.95-.64"/>
        <polyline class="cls-1" points="303.5 193.88 303.52 193.88 317.95 192.23"/>
        <polyline class="cls-1" points="207.36 274.94 207.36 274.94 207.36 324.36"/>
        <line class="cls-1" x1="318.88" y1="218.35" x2="291.24" y2="221.49"/>
        <path class="cls-1" d="M284.56,130.95c10.65-6.17,19.05-13.34,24.88-21.11,4.51-6.02,7.41-12.31,8.68-18.68.4-1.95.64-3.9.72-5.86.03-.55.04-1.11.04-1.67"/>
        <polyline class="cls-1" points="28.07 201.31 21.16 101.85 21.16 101.85"/>
        <line class="cls-1" x1="202.59" y1="126.82" x2="202.59" y2="122.31"/>
        <line class="cls-1" x1=".48" y1="201.44" x2="14.27" y2="209.4"/>
        <path class="cls-1" d="M1.68,80.31L99.15,24.02c12.66-7.29,27.36-13.05,43.44-17.06C160,2.61,178.7.38,197.61.38s37.6,2.24,55.02,6.59c16.12,4.02,30.86,9.8,43.43,17.06"/>
        <polyline class="cls-1" points="207.36 29.22 207.36 29.23 207.36 122.31"/>
        <polyline class="cls-1" points="318.88 197.97 318.88 218.35 318.88 218.45"/>
        <line class="cls-1" x1="21.16" y1="408.01" x2="27.59" y2="235.06"/>
        <line class="cls-1" x1="14.27" y1="105.84" x2="14.27" y2="209.4"/>
        <path class="cls-1" d="M186.88,187.35c-.77.44-1.11,1.25-1.1,2.14"/>
        <line class="cls-1" x1="7.38" y1="91.6" x2="7.38" y2="101.85"/>
        <line class="cls-1" x1=".48" y1="221.93" x2=".48" y2="201.44"/>
        <line class="cls-1" x1="14.27" y1="411.99" x2="7.38" y2="408.01"/>
        <line class="cls-1" x1="192.61" y1="122.32" x2="197.61" y2="122.31"/>
        <line class="cls-1" x1="202.38" y1="122.9" x2="200.95" y2="126.8"/>
        <path class="cls-1" d="M318.11,91.19v-.02c-3.08-16.67-17.23-31.71-34.76-41.67"/>
        <path class="cls-1" d="M303.49,187.59c-.04-12.04-6.55-23.82-16.85-33"/>
        <line class="cls-1" x1="303.5" y1="188.53" x2="303.52" y2="192.1"/>
        <polyline class="cls-1" points="167.99 293.65 173.41 290.44 173.43 290.44"/>
        <line class="cls-1" x1="199.58" y1="274.98" x2="272.45" y2="231.91"/>
        <line class="cls-1" x1="171.98" y1="300.45" x2="185.77" y2="308.43"/>
        <line class="cls-1" x1="185.77" y1="328.9" x2="199.58" y2="320.94"/>
        <path class="cls-1" d="M172.41,297.48c-.58-.29-1.16-.57-1.74-.86"/>
        <line class="cls-1" x1="318.88" y1="192.1" x2="317.95" y2="192.23"/>
        <line class="cls-1" x1="199.32" y1="324.36" x2="207.36" y2="324.36"/>
        <line class="cls-1" x1="185.77" y1="308.43" x2="185.77" y2="328.9"/>
        <path class="cls-1" d="M272.45,231.91c17.61-10.12,31-26.35,31.04-43.38,0-.32,0-.63-.01-.95"/>
        <line class="cls-1" x1="185.77" y1="328.9" x2="178.88" y2="507.02"/>
        <polyline class="cls-1" points="171.98 320.94 171.98 503.05 178.88 507.02 185.77 503.05"/>
        <line class="cls-1" x1="17.23" y1="207.69" x2="14.27" y2="209.4"/>
        <line class="cls-1" x1="328.64" y1="402.84" x2="328.64" y2="114.19"/>
        <polyline class="cls-1" points="318.88 218.45 323.75 402.84 328.64 402.84"/>
        <line class="cls-1" x1="207.36" y1="122.31" x2="207.36" y2="126.98"/>
        <polyline class="cls-1" points="187.84 127.11 187.84 122.31 197.61 122.31"/>
        <polyline class="cls-1" points="17.23 228.19 17.23 207.69 18.16 207.15"/>
        <path class="cls-1" d="M198.48,199.6c.71-.51,1.19-1.12,1.19-2.06,0-2.53-3.48-7.42-6.99-9.19"/>
        <path class="cls-1" d="M318.15,91.32h0c-.01-.06-.02-.09-.03-.13"/>
        <line class="cls-1" x1="202.59" y1="122.31" x2="207.36" y2="122.31"/>
        <line class="cls-1" x1="18.16" y1="207.15" x2="167.99" y2="293.65"/>
        <line class="cls-1" x1="322.86" y1="121.77" x2="318.88" y2="197.97"/>
        <path class="cls-1" d="M14.27,90.47c.34-2.32-3.51-7.4-6.9-9.1"/>
        <line class="cls-1" x1="14.27" y1="105.84" x2="14.27" y2="90.47"/>
        <path class="cls-1" d="M7.38,81.36c-1.98-1.19-4.41-1.77-5.7-1.06-.04.02-.08.04-.11.06"/>
        <line class="cls-1" x1="192.68" y1="208.84" x2="192.68" y2="198.6"/>
        <polyline class="cls-1" points="14.27 209.4 14.27 229.9 14.27 411.99"/>
        <line class="cls-1" x1="272.5" y1="236.44" x2="272.45" y2="231.91"/>
        <line class="cls-1" x1="171.98" y1="320.94" x2="185.77" y2="328.9"/>
        <path class="cls-1" d="M318.88,83.64c.33-19.52-15.15-38.07-35.52-49.51"/>
        <path class="cls-1" d="M99.15,24.02c1.26-.8,3.77-.22,5.81,1"/>
        <path class="cls-1" d="M296.06,143.26c.71-.51,1.19-1.12,1.19-2.06,0-2.53-3.48-7.42-6.99-9.18"/>
        <line class="cls-1" x1="104.95" y1="25.02" x2="7.38" y2="81.36"/>
        <path class="cls-1" d="M104.95,25.02c3.39,1.7,7.24,6.78,6.9,9.1"/>
        <path class="cls-1" d="M290.25,25.02c-3.4,1.7-7.24,6.78-6.9,9.1"/>
        <path class="cls-1" d="M290.25,132.02c22.19-12.15,38.38-32.82,38.38-53.5s-16.19-41.34-38.38-53.49"/>
        <path class="cls-1" d="M296.06,24.02c-1.26-.8-3.76-.22-5.8,1"/>
        <path class="cls-1" d="M290.25,132.02c-1.99-1.2-4.42-1.77-5.7-1.05-.04.01-.07.03-.1.05"/>
        <polyline class="cls-1" points="14.27 90.47 111.86 34.12 111.86 49.49"/>
        <line class="cls-1" x1="192.68" y1="188.35" x2="290.25" y2="132.02"/>
        <path class="cls-1" d="M283.36,34.12c-19.47-11.85-52.61-20.5-85.75-20.5s-66.28,8.65-85.75,20.5"/>
        <line class="cls-1" x1="283.36" y1="34.12" x2="283.36" y2="49.49"/>
        <line class="cls-1" x1="290.25" y1="152.49" x2="290.25" y2="146.6"/>
        <line class="cls-1" x1="317.95" y1="192.23" x2="318.88" y2="194.73"/>
        <path class="cls-1" d="M290.25,25.02c-21.04-12.81-56.84-22.16-92.65-22.16s-71.62,9.35-92.65,22.16"/>
        <line class="cls-1" x1="202.38" y1="122.9" x2="197.61" y2="122.31"/>
        <path class="cls-1" d="M318.15,91.31c.38-1.99.61-4,.69-6.01.03-.56.04-1.11.04-1.67"/>
      </g>
    </g>
  </g>
</svg>